<?xml version="1.0" encoding="UTF-8" standalone="no"?><svg xmlns="http://www.w3.org/2000/svg" xmlns:xlink="http://www.w3.org/1999/xlink" contentStyleType="text/css" height="1062px" preserveAspectRatio="none" style="width:2897px;height:1062px;background:#FFFFFF;" version="1.1" viewBox="0 0 2897 1062" width="2897px" zoomAndPan="magnify"><defs/><g><!--MD5=[d218cd141be9b83104949cc4c5ed4d6d]
cluster Timer--><g id="cluster_Timer"><path d="M1360,202.5 L2871,202.5 A12.5,12.5 0 0 1 2883.5,215 L2883.5,252.7188 L1347.5,252.7188 L1347.5,215 A12.5,12.5 0 0 1 1360,202.5 " fill="#F1F1F1" style="stroke:#F1F1F1;stroke-width:1.0;"/><rect fill="none" height="854" rx="12.5" ry="12.5" style="stroke:#181818;stroke-width:0.5;" width="1536" x="1347.5" y="202.5"/><line style="stroke:#181818;stroke-width:0.5;" x1="1347.5" x2="2883.5" y1="252.7188" y2="252.7188"/><line style="stroke:#181818;stroke-width:0.5;" x1="1347.5" x2="2883.5" y1="230.1094" y2="230.1094"/><text fill="#000000" font-family="sans-serif" font-size="14" lengthAdjust="spacing" textLength="36" x="2069" y="221.0332">Timer</text><text fill="#000000" font-family="sans-serif" font-size="14" lengthAdjust="spacing" textLength="93" x="1352.5" y="247.1426">LED 2 leuchtet</text></g><!--MD5=[a1a58a88c54b521485b244b5d3aa894d]
cluster ConfigTimer--><g id="cluster_ConfigTimer"><path d="M2133,792 L2831,792 A12.5,12.5 0 0 1 2843.5,804.5 L2843.5,819.6094 L2120.5,819.6094 L2120.5,804.5 A12.5,12.5 0 0 1 2133,792 " fill="#F1F1F1" style="stroke:#F1F1F1;stroke-width:1.0;"/><rect fill="none" height="224.5" rx="12.5" ry="12.5" style="stroke:#181818;stroke-width:0.5;" width="723" x="2120.5" y="792"/><line style="stroke:#181818;stroke-width:0.5;" x1="2120.5" x2="2843.5" y1="819.6094" y2="819.6094"/><text fill="#000000" font-family="sans-serif" font-size="14" lengthAdjust="spacing" textLength="123" x="2420.5" y="810.5332">Timer konfigurieren</text></g><!--MD5=[34d2dfc6aed3b420e435e6a75d65bad1]
cluster RunningTimer--><g id="cluster_RunningTimer"><path d="M1527,538 L1978,538 A12.5,12.5 0 0 1 1990.5,550.5 L1990.5,565.6094 L1514.5,565.6094 L1514.5,550.5 A12.5,12.5 0 0 1 1527,538 " fill="#F1F1F1" style="stroke:#F1F1F1;stroke-width:1.0;"/><rect fill="none" height="359.5" rx="12.5" ry="12.5" style="stroke:#181818;stroke-width:0.5;" width="476" x="1514.5" y="538"/><line style="stroke:#181818;stroke-width:0.5;" x1="1514.5" x2="1990.5" y1="565.6094" y2="565.6094"/><text fill="#000000" font-family="sans-serif" font-size="14" lengthAdjust="spacing" textLength="67" x="1719" y="556.5332">Timer läuft</text></g><ellipse cx="1956.5" cy="279.5" fill="#222222" rx="10" ry="10" style="stroke:none;stroke-width:1.0;"/><rect fill="#F1F1F1" height="40" rx="12.5" ry="12.5" style="stroke:#181818;stroke-width:0.5;" width="181" x="2406" y="952.5"/><text fill="#000000" font-family="sans-serif" font-size="14" lengthAdjust="spacing" textLength="171" x="2411" y="978.2285">Eingerichtete Zeit anzeigen</text><rect fill="#F1F1F1" height="40" rx="12.5" ry="12.5" style="stroke:#181818;stroke-width:0.5;" width="90" x="2729.5" y="952.5"/><text fill="#000000" font-family="sans-serif" font-size="14" lengthAdjust="spacing" textLength="80" x="2734.5" y="978.2285">Zeit erhöhen</text><rect fill="#F1F1F1" height="40" rx="12.5" ry="12.5" style="stroke:#181818;stroke-width:0.5;" width="102" x="2152.5" y="952.5"/><text fill="#000000" font-family="sans-serif" font-size="14" lengthAdjust="spacing" textLength="92" x="2157.5" y="978.2285">Zeit verringern</text><ellipse cx="2496.5" cy="846" fill="#222222" rx="10" ry="10" style="stroke:none;stroke-width:1.0;"/><rect fill="#F1F1F1" height="40" rx="12.5" ry="12.5" style="stroke:#181818;stroke-width:0.5;" width="148" x="1665.5" y="680"/><text fill="#000000" font-family="sans-serif" font-size="14" lengthAdjust="spacing" textLength="138" x="1670.5" y="705.7285">Aktuelle Zeit anzeigen</text><g id="Timer.RunningTimer.TimerAbgelaufen"><rect fill="#F1F1F1" height="55.2188" rx="12.5" ry="12.5" style="stroke:#181818;stroke-width:0.5;" width="131" x="1826" y="818.5"/><line style="stroke:#181818;stroke-width:0.5;" x1="1826" x2="1957" y1="846.1094" y2="846.1094"/><text fill="#000000" font-family="sans-serif" font-size="14" lengthAdjust="spacing" textLength="111" x="1836" y="838.0332">Timer abgelaufen</text><text fill="#000000" font-family="sans-serif" font-size="14" lengthAdjust="spacing" textLength="83" x="1831" y="865.6426">Buzzer ertönt</text></g><g id="Timer.RunningTimer.Pausieren"><rect fill="#F1F1F1" height="55.2188" rx="12.5" ry="12.5" style="stroke:#181818;stroke-width:0.5;" width="244" x="1546.5" y="818.5"/><line style="stroke:#181818;stroke-width:0.5;" x1="1546.5" x2="1790.5" y1="846.1094" y2="846.1094"/><text fill="#000000" font-family="sans-serif" font-size="14" lengthAdjust="spacing" textLength="64" x="1636.5" y="838.0332">Pausieren</text><text fill="#000000" font-family="sans-serif" font-size="14" lengthAdjust="spacing" textLength="224" x="1551.5" y="865.6426">Buzzer ertönt pausieren / fortsetzen</text></g><ellipse cx="1739.5" cy="592" fill="#222222" rx="10" ry="10" style="stroke:none;stroke-width:1.0;"/><ellipse cx="592.5" cy="19" fill="#222222" rx="10" ry="10" style="stroke:none;stroke-width:1.0;"/><g id="elem_N1"><path d="M638,6 L638,32.3516 L859,32.3516 L859,16 L849,6 L638,6 " fill="#FEFFDD" style="stroke:#181818;stroke-width:0.5;"/><path d="M849,6 L849,16 L859,16 L849,6 " fill="#FEFFDD" style="stroke:#181818;stroke-width:1.0;"/><text fill="#000000" font-family="sans-serif" font-size="13" lengthAdjust="spacing" textLength="200" x="644" y="24.4951">LED 4 blinkt immer im 2Hz interval</text></g><path d="M19.5,93 L1165.5,93 A12.5,12.5 0 0 1 1178,105.5 L1178,170.8906 L7,170.8906 L7,105.5 A12.5,12.5 0 0 1 19.5,93 " fill="#F1F1F1" style="stroke:#F1F1F1;stroke-width:1.0;"/><rect fill="none" height="372.7188" rx="12.5" ry="12.5" style="stroke:#181818;stroke-width:0.5;" width="1171" x="7" y="93"/><line style="stroke:#181818;stroke-width:0.5;" x1="7" x2="1178" y1="170.8906" y2="170.8906"/><line style="stroke:#181818;stroke-width:0.5;" x1="7" x2="1178" y1="120.6094" y2="120.6094"/><text fill="#000000" font-family="sans-serif" font-size="14" lengthAdjust="spacing" textLength="58" x="563.5" y="112.5332">Stoppuhr</text><text fill="#000000" font-family="sans-serif" font-size="12" lengthAdjust="spacing" textLength="80" x="12" y="133.0664">LED 1 leuchtet</text><text fill="#000000" font-family="sans-serif" font-size="12" lengthAdjust="spacing" textLength="195" x="12" y="148.1602">LED 3 leuchtet, wenn Stoppuhr läuft</text><text fill="#000000" font-family="sans-serif" font-size="12" lengthAdjust="spacing" textLength="203" x="12" y="163.2539">LED 3 blinkt, wenn Zwischenzeit aktiv</text><ellipse cx="811" cy="191.8906" fill="#222222" rx="10" ry="10" style="stroke:none;stroke-width:1.0;"/><g id="Stoppuhr.LeereZeitAnzeigen"><rect fill="#F1F1F1" height="55.2188" rx="12.5" ry="12.5" style="stroke:#181818;stroke-width:0.5;" width="170" x="705" y="391.8906"/><line style="stroke:#181818;stroke-width:0.5;" x1="705" x2="875" y1="419.5" y2="419.5"/><text fill="#000000" font-family="sans-serif" font-size="14" lengthAdjust="spacing" textLength="125" x="727.5" y="411.4238">Leere Zeit anzeigen</text><text fill="#000000" font-family="sans-serif" font-size="14" lengthAdjust="spacing" textLength="150" x="710" y="439.0332">00:00:00 wird angezeigt</text></g><g id="Stoppuhr.SAktuelleZeitAnzeigen"><rect fill="#F1F1F1" height="55.2188" rx="12.5" ry="12.5" style="stroke:#181818;stroke-width:0.5;" width="463" x="372.5" y="264.8906"/><line style="stroke:#181818;stroke-width:0.5;" x1="372.5" x2="835.5" y1="292.5" y2="292.5"/><text fill="#000000" font-family="sans-serif" font-size="14" lengthAdjust="spacing" textLength="138" x="535" y="284.4238">Aktuelle Zeit anzeigen</text><text fill="#000000" font-family="sans-serif" font-size="14" lengthAdjust="spacing" textLength="443" x="377.5" y="312.0332">Wenn 9:59:59 erreicht, werden Zehntelsekunden nicht mehr angezeigt</text></g><g id="Stoppuhr.ZwischenZeitAnzeigen"><rect fill="#F1F1F1" height="72.8281" rx="12.5" ry="12.5" style="stroke:#181818;stroke-width:0.5;" width="228" x="19" y="255.8906"/><line style="stroke:#181818;stroke-width:0.5;" x1="19" x2="247" y1="283.5" y2="283.5"/><text fill="#000000" font-family="sans-serif" font-size="14" lengthAdjust="spacing" textLength="140" x="63" y="275.4238">Zwischenzeit anzeigen</text><text fill="#000000" font-family="sans-serif" font-size="14" lengthAdjust="spacing" textLength="192" x="24" y="303.0332">Zeit beim Stopp wird angezeigt</text><text fill="#000000" font-family="sans-serif" font-size="14" lengthAdjust="spacing" textLength="208" x="24" y="320.6426">Zähler lauft im Hintergrund weiter</text></g><g id="Stoppuhr.EndzeitAnzeigen"><rect fill="#F1F1F1" height="72.8281" rx="12.5" ry="12.5" style="stroke:#181818;stroke-width:0.5;" width="212" x="367" y="382.8906"/><line style="stroke:#181818;stroke-width:0.5;" x1="367" x2="579" y1="410.5" y2="410.5"/><text fill="#000000" font-family="sans-serif" font-size="14" lengthAdjust="spacing" textLength="107" x="419.5" y="402.4238">Endzeit anzeigen</text><text fill="#000000" font-family="sans-serif" font-size="14" lengthAdjust="spacing" textLength="192" x="372" y="430.0332">Zeit beim Stopp wird angezeigt</text><text fill="#000000" font-family="sans-serif" font-size="14" lengthAdjust="spacing" textLength="144" x="372" y="447.6426">Zähler wird angehalten</text></g><!--MD5=[876f016c794e417d30e82d2a589edab3]
link *start*Stoppuhr to LeereZeitAnzeigen--><g id="link_*start*Stoppuhr_LeereZeitAnzeigen"><path d="M821.13,192.7406 C852.9,192.8706 950.94,198.1206 992,255.8906 C1010.8,282.3306 1009.7,301.7006 992,328.8906 C967.07,367.2006 921.59,389.2406 880.08,401.8506 " fill="none" id="*start*Stoppuhr-to-LeereZeitAnzeigen" style="stroke:#181818;stroke-width:1.0;"/><polygon fill="#181818" points="875.04,403.3406,884.8036,404.6339,879.8361,401.9275,882.5425,396.96,875.04,403.3406" style="stroke:#181818;stroke-width:1.0;"/><text fill="#000000" font-family="sans-serif" font-size="13" lengthAdjust="spacing" textLength="157" x="1006" y="297.8857">Stoppuhr ist nicht gestartet</text></g><!--MD5=[abb23f2ddbfe905a8c7e29a761bdbc8d]
link *start*Stoppuhr to SAktuelleZeitAnzeigen--><g id="link_*start*Stoppuhr_SAktuelleZeitAnzeigen"><path d="M802.37,197.0006 C779.17,208.0406 713.87,239.1106 664.48,262.6106 " fill="none" id="*start*Stoppuhr-to-SAktuelleZeitAnzeigen" style="stroke:#181818;stroke-width:1.0;"/><polygon fill="#181818" points="659.75,264.8606,669.5951,264.5894,664.2614,262.7049,666.1459,257.3711,659.75,264.8606" style="stroke:#181818;stroke-width:1.0;"/><text fill="#000000" font-family="sans-serif" font-size="13" lengthAdjust="spacing" textLength="80" x="750" y="234.3857">Stoppuhr läuft</text></g><!--MD5=[02bf5b7f2e5a08ad49e01bca58df50f0]
link SAktuelleZeitAnzeigen to SAktuelleZeitAnzeigen--><g id="link_SAktuelleZeitAnzeigen_SAktuelleZeitAnzeigen"><path d="M835.67,284.9706 C846.9,286.8306 853.5,289.3006 853.5,292.3906 C853.5,295.0006 848.8,297.1606 840.59,298.8906 " fill="none" id="SAktuelleZeitAnzeigen-to-SAktuelleZeitAnzeigen" style="stroke:#181818;stroke-width:1.0;"/><polygon fill="#181818" points="835.67,299.8106,845.2498,302.097,840.5857,298.8961,843.7865,294.2319,835.67,299.8106" style="stroke:#181818;stroke-width:1.0;"/><text fill="#000000" font-family="sans-serif" font-size="13" lengthAdjust="spacing" textLength="117" x="859.5" y="297.8857">Zeit + 1/10 Sekunde</text></g><!--MD5=[b2c8003b86c560f6da3674eb2e6b93ac]
link LeereZeitAnzeigen to SAktuelleZeitAnzeigen--><g id="link_LeereZeitAnzeigen_SAktuelleZeitAnzeigen"><path d="M761.32,391.6306 C745.39,377.4506 724.83,360.2606 705,346.8906 C692.14,338.2206 677.72,329.8606 663.89,322.4206 " fill="none" id="LeereZeitAnzeigen-to-SAktuelleZeitAnzeigen" style="stroke:#181818;stroke-width:1.0;"/><polygon fill="#181818" points="659.22,319.9406,665.2749,327.7084,663.6306,322.2958,669.0432,320.6515,659.22,319.9406" style="stroke:#181818;stroke-width:1.0;"/><text fill="#000000" font-family="sans-serif" font-size="13" lengthAdjust="spacing" textLength="106" x="728" y="361.3857">Taster S1 drücken</text></g><!--MD5=[3f23f84a75865b70e9a88ad873dd52ec]
link SAktuelleZeitAnzeigen to ZwischenZeitAnzeigen--><g id="link_SAktuelleZeitAnzeigen_ZwischenZeitAnzeigen"><path d="M372.07,315.7506 C333.21,316.9806 293.32,316.5806 255.75,313.3906 C254.61,313.2906 253.47,313.1906 252.32,313.0906 " fill="none" id="SAktuelleZeitAnzeigen-to-ZwischenZeitAnzeigen" style="stroke:#181818;stroke-width:1.0;"/><polygon fill="#181818" points="247.26,312.5906,255.8284,317.4468,252.2363,313.0768,256.6063,309.4847,247.26,312.5906" style="stroke:#181818;stroke-width:1.0;"/><text fill="#000000" font-family="sans-serif" font-size="13" lengthAdjust="spacing" textLength="106" x="256.75" y="309.8857">Taster S3 drücken</text></g><!--MD5=[c6de83ab15de6fde18ca19e9c2ad90ac]
link ZwischenZeitAnzeigen to SAktuelleZeitAnzeigen--><g id="link_ZwischenZeitAnzeigen_SAktuelleZeitAnzeigen"><path d="M247.02,292.3906 C283.51,292.3906 325.37,292.3906 367.28,292.3906 " fill="none" id="ZwischenZeitAnzeigen-to-SAktuelleZeitAnzeigen" style="stroke:#181818;stroke-width:1.0;"/><polygon fill="#181818" points="372.39,292.3906,363.39,288.3906,367.39,292.3906,363.39,296.3906,372.39,292.3906" style="stroke:#181818;stroke-width:1.0;"/><text fill="#000000" font-family="sans-serif" font-size="13" lengthAdjust="spacing" textLength="106" x="256.75" y="285.8857">Taster S3 drücken</text></g><!--MD5=[d2c1d6d579be35e60d8c6c8f4dfd10e2]
link ZwischenZeitAnzeigen to EndzeitAnzeigen--><g id="link_ZwischenZeitAnzeigen_EndzeitAnzeigen"><path d="M229.98,329.0406 C274.2,345.3006 326.55,364.5506 371.33,381.0106 " fill="none" id="ZwischenZeitAnzeigen-to-EndzeitAnzeigen" style="stroke:#181818;stroke-width:1.0;"/><polygon fill="#181818" points="376.19,382.8006,369.1239,375.9399,371.4973,381.0747,366.3625,383.4482,376.19,382.8006" style="stroke:#181818;stroke-width:1.0;"/><text fill="#000000" font-family="sans-serif" font-size="13" lengthAdjust="spacing" textLength="106" x="325" y="361.3857">Taster S2 drücken</text></g><!--MD5=[f1bf7bb49ad1e4ff831bafd902887e0a]
link SAktuelleZeitAnzeigen to EndzeitAnzeigen--><g id="link_SAktuelleZeitAnzeigen_EndzeitAnzeigen"><path d="M503.38,320.0106 C491.85,326.9906 481.55,335.7906 474,346.8906 C468,355.7106 465.92,366.6706 465.8,377.3306 " fill="none" id="SAktuelleZeitAnzeigen-to-EndzeitAnzeigen" style="stroke:#181818;stroke-width:1.0;"/><polygon fill="#181818" points="465.88,382.5306,469.7251,373.4634,465.7943,377.5314,461.7263,373.6005,465.88,382.5306" style="stroke:#181818;stroke-width:1.0;"/><text fill="#000000" font-family="sans-serif" font-size="13" lengthAdjust="spacing" textLength="106" x="475" y="361.3857">Taster S2 drücken</text></g><!--MD5=[98a018fa868472a5bf0b898f53a8366d]
link EndzeitAnzeigen to SAktuelleZeitAnzeigen--><g id="link_EndzeitAnzeigen_SAktuelleZeitAnzeigen"><path d="M562.11,382.8606 C569.46,377.5906 576.25,371.6206 582,364.8906 C591.54,353.7206 596.94,338.4606 600,324.9106 " fill="none" id="EndzeitAnzeigen-to-SAktuelleZeitAnzeigen" style="stroke:#181818;stroke-width:1.0;"/><polygon fill="#181818" points="601.03,320.0006,595.2887,328.003,600.0165,324.8968,603.1227,329.6246,601.03,320.0006" style="stroke:#181818;stroke-width:1.0;"/><text fill="#000000" font-family="sans-serif" font-size="13" lengthAdjust="spacing" textLength="106" x="594" y="361.3857">Taster S1 drücken</text></g><!--MD5=[096baae9f97fc5bcb66785888fe2d05e]
link EndzeitAnzeigen to LeereZeitAnzeigen--><g id="link_EndzeitAnzeigen_LeereZeitAnzeigen"><path d="M579.44,419.3906 C618.51,419.3906 662.34,419.3906 699.85,419.3906 " fill="none" id="EndzeitAnzeigen-to-LeereZeitAnzeigen" style="stroke:#181818;stroke-width:1.0;"/><polygon fill="#181818" points="704.86,419.3906,695.86,415.3906,699.86,419.3906,695.86,423.3906,704.86,419.3906" style="stroke:#181818;stroke-width:1.0;"/><text fill="#000000" font-family="sans-serif" font-size="13" lengthAdjust="spacing" textLength="106" x="589" y="412.8857">Taster S3 drücken</text></g><!--MD5=[6b86af7d250541b200e640f6fd6ff49a]
link *start to Stoppuhr--><g id="link_*start_Stoppuhr"><path d="M592.5,29.2 C592.5,40.71 592.5,62.04 592.5,87.56 " fill="none" id="*start-to-Stoppuhr" style="stroke:#181818;stroke-width:1.0;"/><polygon fill="#181818" points="592.5,92.72,596.5,83.72,592.5,87.72,588.5,83.72,592.5,92.72" style="stroke:#181818;stroke-width:1.0;"/></g><!--MD5=[560872e3b9d69698e957dec19def5e56]
link *start*Timer to ConfigTimer--><g id="link_*start*Timer_ConfigTimer"><path d="M1959.2,289.37 C1970.055,324.995 2011.805,462.02 2051.125,591.0688 C2070.785,655.5931 2089.8375,718.1234 2104.1169,764.9877 C2107.6867,776.7037 2110.9582,787.4406 2113.8664,796.9848 C2115.3204,801.7569 2116.6836,806.2308 2117.9478,810.3798 C2118.5799,812.4543 2119.1873,814.4476 2119.7689,816.3563 C2119.9143,816.8335 2120.0581,817.3054 2120.2003,817.7719 " fill="none" id="*start*Timer-to-ConfigTimer" style="stroke:#181818;stroke-width:1.0;"/><polygon fill="#181818" points="2120.2003,817.7719,2121.4033,807.9968,2118.7429,812.989,2113.7507,810.3286,2120.2003,817.7719" style="stroke:#181818;stroke-width:1.0;"/><text fill="#000000" font-family="sans-serif" font-size="13" lengthAdjust="spacing" textLength="92" x="2068.5" y="646.4951">Timer läuft nicht</text></g><!--MD5=[1a608ec24145787c5a8da4388cd7b2c5]
link *start*Timer to RunningTimer--><g id="link_*start*Timer_RunningTimer"><path d="M1959.2,289.36 C1967.63,318.97 1990.11,415.46 1942.5,466 C1815.79,600.52 1659.88,390.05 1530.5,522 C1527.8825,524.6688 1525.7816,527.703 1524.1105,530.975 C1523.2749,532.611 1522.5468,534.3065 1521.9154,536.0454 C1521.7575,536.4802 1521.6057,536.9177 1521.4597,537.3576 C1521.4232,537.4676 1521.3871,537.5777 1521.3513,537.688 " fill="none" id="*start*Timer-to-RunningTimer" style="stroke:#181818;stroke-width:1.0;"/><polygon fill="#181818" points="1521.3513,537.688,1527.9322,530.3604,1522.8935,532.9317,1520.3222,527.893,1521.3513,537.688" style="stroke:#181818;stroke-width:1.0;"/><text fill="#000000" font-family="sans-serif" font-size="13" lengthAdjust="spacing" textLength="60" x="1904.5" y="510.4951">Timer läuft</text></g><!--MD5=[ab1c9ad4db6a4ba4639618b5538132f0]
link *start*ConfigTimer to EingerichteteZeitAnzeigen--><g id="link_*start*ConfigTimer_EingerichteteZeitAnzeigen"><path d="M2496.5,856.36 C2496.5,875.44 2496.5,919.4 2496.5,947.14 " fill="none" id="*start*ConfigTimer-to-EingerichteteZeitAnzeigen" style="stroke:#181818;stroke-width:1.0;"/><polygon fill="#181818" points="2496.5,952.46,2500.5,943.46,2496.5,947.46,2492.5,943.46,2496.5,952.46" style="stroke:#181818;stroke-width:1.0;"/></g><!--MD5=[a1fa994246cf99cae6c815286189b47a]
link EingerichteteZeitAnzeigen to ZeitErhöhen--><g id="link_EingerichteteZeitAnzeigen_ZeitErhöhen"><path d="M2587.12,991.74 C2625.82,997.27 2671.4,1000.2 2712.25,993.5 C2716.21,992.85 2720.25,991.98 2724.28,990.97 " fill="none" id="EingerichteteZeitAnzeigen-to-ZeitErhöhen" style="stroke:#181818;stroke-width:1.0;"/><polygon fill="#181818" points="2729.38,989.62,2719.6538,988.0704,2724.5484,990.9065,2721.7123,995.8011,2729.38,989.62" style="stroke:#181818;stroke-width:1.0;"/><text fill="#000000" font-family="sans-serif" font-size="13" lengthAdjust="spacing" textLength="106" x="2605.25" y="989.9951">Taster S1 drücken</text></g><!--MD5=[d9cffa0b86fd3b849d28972b63c249cd]
link ZeitErhöhen to EingerichteteZeitAnzeigen--><g id="link_ZeitErhöhen_EingerichteteZeitAnzeigen"><path d="M2729.18,972.5 C2692.18,972.5 2638.6,972.5 2592.19,972.5 " fill="none" id="ZeitErhöhen-to-EingerichteteZeitAnzeigen" style="stroke:#181818;stroke-width:1.0;"/><polygon fill="#181818" points="2587.14,972.5,2596.14,976.5,2592.14,972.5,2596.14,968.5,2587.14,972.5" style="stroke:#181818;stroke-width:1.0;"/><text fill="#000000" font-family="sans-serif" font-size="13" lengthAdjust="spacing" textLength="115" x="2600.75" y="965.9951">Taster S1 loslassen</text></g><!--MD5=[f2d9fcf0988ee0e0bcb87e32af3409e8]
reverse link ZeitVerringern to EingerichteteZeitAnzeigen--><g id="link_ZeitVerringern_EingerichteteZeitAnzeigen"><path d="M2259.82,990.43 C2265.33,991.68 2270.87,992.74 2276.25,993.5 C2323.78,1000.22 2336.46,997.93 2384.25,993.5 C2391.26,992.85 2398.48,991.98 2405.72,990.95 " fill="none" id="ZeitVerringern-backto-EingerichteteZeitAnzeigen" style="stroke:#181818;stroke-width:1.0;"/><polygon fill="#181818" points="2254.78,989.23,2262.6285,995.1799,2259.6478,990.372,2264.4557,987.3914,2254.78,989.23" style="stroke:#181818;stroke-width:1.0;"/><text fill="#000000" font-family="sans-serif" font-size="13" lengthAdjust="spacing" textLength="106" x="2277.25" y="989.9951">Taster S2 drücken</text></g><!--MD5=[5df3bbd0147b250ad0be27db71bd8aed]
link ZeitVerringern to EingerichteteZeitAnzeigen--><g id="link_ZeitVerringern_EingerichteteZeitAnzeigen"><path d="M2254.54,972.5 C2294.72,972.5 2351.87,972.5 2400.54,972.5 " fill="none" id="ZeitVerringern-to-EingerichteteZeitAnzeigen" style="stroke:#181818;stroke-width:1.0;"/><polygon fill="#181818" points="2405.82,972.5,2396.82,968.5,2400.82,972.5,2396.82,976.5,2405.82,972.5" style="stroke:#181818;stroke-width:1.0;"/><text fill="#000000" font-family="sans-serif" font-size="13" lengthAdjust="spacing" textLength="115" x="2272.75" y="965.9951">Taster S2 loslassen</text></g><!--MD5=[c7d1638a0f943ddd31f55ef278cb2291]
link EingerichteteZeitAnzeigen to RunningTimer--><g id="link_EingerichteteZeitAnzeigen_RunningTimer"><path d="M2405.82,963.14 C2365.08,959.56 2316.4,955.51 2272.5,952.5 C2190.14,946.84 1603.25,952.53 1530.5,913.5 C1444.46,867.34 1399.17,830.04 1422.5,750 C1433.89,710.91 1458.2925,672.265 1480.1388,643.0975 C1491.0619,628.5138 1501.3459,616.2994 1509.0448,607.5834 C1510.9696,605.4045 1512.7327,603.4441 1514.3039,601.7201 " fill="none" id="EingerichteteZeitAnzeigen-to-RunningTimer" style="stroke:#181818;stroke-width:1.0;"/><polygon fill="#181818" points="1514.3039,601.7201,1505.2852,605.6778,1510.936,605.4157,1511.1981,611.0664,1514.3039,601.7201" style="stroke:#181818;stroke-width:1.0;"/><text fill="#000000" font-family="sans-serif" font-size="13" lengthAdjust="spacing" textLength="106" x="1423.5" y="764.4951">Taster S3 drücken</text></g><!--MD5=[4831a708bc6b2c0b0b3e3c052bf09cf4]
link *start*RunningTimer to TAktuelleZeitAnzeigen--><g id="link_*start*RunningTimer_TAktuelleZeitAnzeigen"><path d="M1739.5,602.04 C1739.5,617.96 1739.5,651.5 1739.5,674.63 " fill="none" id="*start*RunningTimer-to-TAktuelleZeitAnzeigen" style="stroke:#181818;stroke-width:1.0;"/><polygon fill="#181818" points="1739.5,679.69,1743.5,670.69,1739.5,674.69,1735.5,670.69,1739.5,679.69" style="stroke:#181818;stroke-width:1.0;"/></g><!--MD5=[d826b4057958e29a15714c958344e994]
link TAktuelleZeitAnzeigen to TAktuelleZeitAnzeigen--><g id="link_TAktuelleZeitAnzeigen_TAktuelleZeitAnzeigen"><path d="M1813.63,689.21 C1833.45,689.81 1848.5,693.4 1848.5,700 C1848.5,706.03 1835.93,709.55 1818.62,710.57 " fill="none" id="TAktuelleZeitAnzeigen-to-TAktuelleZeitAnzeigen" style="stroke:#181818;stroke-width:1.0;"/><polygon fill="#181818" points="1813.63,710.79,1822.8033,714.3748,1818.6248,710.5617,1822.4379,706.3832,1813.63,710.79" style="stroke:#181818;stroke-width:1.0;"/><text fill="#000000" font-family="sans-serif" font-size="13" lengthAdjust="spacing" textLength="113" x="1854.5" y="705.4951">Zeit - 1/10 Sekunde</text></g><!--MD5=[3fc762c149b46829d6bdc5e2e91bed48]
link TAktuelleZeitAnzeigen to Pausieren--><g id="link_TAktuelleZeitAnzeigen_Pausieren"><path d="M1665.46,707.44 C1637.63,713.88 1608.62,726.3 1591.5,750 C1575.22,772.53 1595.74,796.87 1619.66,815.26 " fill="none" id="TAktuelleZeitAnzeigen-to-Pausieren" style="stroke:#181818;stroke-width:1.0;"/><polygon fill="#181818" points="1623.85,818.4,1619.05,809.8,1619.85,815.4,1614.25,816.2,1623.85,818.4" style="stroke:#181818;stroke-width:1.0;"/><text fill="#000000" font-family="sans-serif" font-size="13" lengthAdjust="spacing" textLength="106" x="1592.5" y="764.4951">Taster S1 drücken</text></g><!--MD5=[29f7a4e52f8039fa0d73422014771d6f]
link Pausieren to TAktuelleZeitAnzeigen--><g id="link_Pausieren_TAktuelleZeitAnzeigen"><path d="M1681.59,818.45 C1694.82,791.62 1715.08,750.54 1727.79,724.75 " fill="none" id="Pausieren-to-TAktuelleZeitAnzeigen" style="stroke:#181818;stroke-width:1.0;"/><polygon fill="#181818" points="1730.07,720.12,1722.4995,726.4197,1727.8568,724.6035,1729.6731,729.9609,1730.07,720.12" style="stroke:#181818;stroke-width:1.0;"/><text fill="#000000" font-family="sans-serif" font-size="13" lengthAdjust="spacing" textLength="106" x="1715.5" y="764.4951">Taster S2 drücken</text></g><!--MD5=[6db5374766cf5cf5b0dface51a5505d9]
link TAktuelleZeitAnzeigen to TimerAbgelaufen--><g id="link_TAktuelleZeitAnzeigen_TimerAbgelaufen"><path d="M1785.49,720.07 C1800.9,727.87 1817.47,737.93 1830.5,750 C1850.02,768.08 1865.99,793.69 1876.69,813.77 " fill="none" id="TAktuelleZeitAnzeigen-to-TimerAbgelaufen" style="stroke:#181818;stroke-width:1.0;"/><polygon fill="#181818" points="1879.02,818.22,1878.3719,808.3925,1876.693,813.7945,1871.291,812.1156,1879.02,818.22" style="stroke:#181818;stroke-width:1.0;"/><text fill="#000000" font-family="sans-serif" font-size="13" lengthAdjust="spacing" textLength="87" x="1845.5" y="764.4951">Zeit abgelaufen</text></g><!--MD5=[5ea47a53ae54c883bd4baef3e14172c1]
link TimerAbgelaufen to ConfigTimer--><g id="link_TimerAbgelaufen_ConfigTimer"><path d="M1957.2,846 C1990.625,846 2031.095,846 2064.305,846 C2080.91,846 2095.7,846 2106.8869,846 C2109.6836,846 2112.2551,846 2114.5735,846 C2115.7327,846 2116.8286,846 2117.8577,846 C2118.3723,846 2118.8702,846 2119.3509,846 C2119.5913,846 2119.8274,846 2120.0591,846 C2120.175,846 2120.2898,846 2120.4035,846 " fill="none" id="TimerAbgelaufen-to-ConfigTimer" style="stroke:#181818;stroke-width:1.0;"/><polygon fill="#181818" points="2120.4035,846,2111.4035,842,2115.4035,846,2111.4035,850,2120.4035,846" style="stroke:#181818;stroke-width:1.0;"/><text fill="#000000" font-family="sans-serif" font-size="13" lengthAdjust="spacing" textLength="135" x="1975.07" y="839.4951">3 Sekunden abgelaufen</text></g><!--MD5=[4a3b8708fcf27ad1085de40b49d5df03]
link TAktuelleZeitAnzeigen to ConfigTimer--><g id="link_TAktuelleZeitAnzeigen_ConfigTimer"><path d="M1813.81,719.1 C1815.05,719.41 1816.28,719.7 1817.5,720 C1872.6,733.38 1888.31,730.36 1941.5,750 C1984.54,765.895 2030.5125,789.1575 2066.105,808.6838 C2083.9013,818.4469 2099.1025,827.2759 2110.0447,833.783 C2112.7802,835.4097 2115.2496,836.8914 2117.4268,838.2062 C2118.5153,838.8636 2119.5309,839.4793 2120.4701,840.0506 " fill="none" id="TAktuelleZeitAnzeigen-to-ConfigTimer" style="stroke:#181818;stroke-width:1.0;"/><polygon fill="#181818" points="2120.4701,840.0506,2114.8595,831.9561,2116.1983,837.4522,2110.7021,838.791,2120.4701,840.0506" style="stroke:#181818;stroke-width:1.0;"/><text fill="#000000" font-family="sans-serif" font-size="13" lengthAdjust="spacing" textLength="106" x="1984.5" y="764.4951">Taster S3 drücken</text></g><!--MD5=[e8ae83f704cd5341efffa63e5210209a]
link Stoppuhr to Timer--><g id="link_Stoppuhr_Timer"><path d="M1178.11,300.19 C1183.79,300.3 1189.44,300.4 1195.07,300.5 C1210.96,300.78 1323.69,307.25 1338.07,300.5 C1340.5575,299.3325 1342.8125,297.6163 1344.8127,295.6598 C1345.3127,295.1707 1345.7968,294.6666 1346.2646,294.1523 C1346.4986,293.8952 1346.7284,293.6355 1346.9541,293.3738 C1347.067,293.243 1347.1788,293.1117 1347.2897,292.98 C1347.3451,292.9141 1347.4002,292.8482 1347.4551,292.7821 " fill="none" id="Stoppuhr-to-Timer" style="stroke:#181818;stroke-width:1.0;"/><polygon fill="#181818" points="1347.4551,292.7821,1338.6268,297.148,1344.2597,296.6278,1344.7799,302.2607,1347.4551,292.7821" style="stroke:#181818;stroke-width:1.0;"/><text fill="#000000" font-family="sans-serif" font-size="13" lengthAdjust="spacing" textLength="141" x="1196.07" y="296.9951">Taster S3 lange drücken</text></g><!--MD5=[0f8db74f6935ea4a7a18c365e631c93f]
reverse link Stoppuhr to Timer--><g id="link_Stoppuhr_Timer"><path d="M1183.19,279.5 C1230.83,279.5 1272.17,279.5 1302.4075,279.5 C1317.5263,279.5 1329.8694,279.5 1338.8366,279.5 C1341.0784,279.5 1343.1092,279.5 1344.9196,279.5 C1345.8248,279.5 1346.6749,279.5 1347.4688,279.5 " fill="none" id="Stoppuhr-backto-Timer" style="stroke:#181818;stroke-width:1.0;"/><polygon fill="#181818" points="1178.05,279.5,1187.05,283.5,1183.05,279.5,1187.05,275.5,1178.05,279.5" style="stroke:#181818;stroke-width:1.0;"/><text fill="#000000" font-family="sans-serif" font-size="13" lengthAdjust="spacing" textLength="141" x="1196.07" y="272.9951">Taster S3 lange drücken</text></g><!--MD5=[9ff22d74746b83adc6f5a1552c3067af]
@startuml "M242 - Stoppuhr"
hide empty description

' LED & Buzzer über Kommentare darstellen
' Stimmt Buzzer pausieren

[*] - -> Stoppuhr

note "LED 4 blinkt immer im 2Hz interval" AS N1

state Stoppuhr {
    ' Eigenschaften
    Stoppuhr : LED 1 leuchtet
    Stoppuhr : LED 3 leuchtet, wenn Stoppuhr läuft
    Stoppuhr : LED 3 blinkt, wenn Zwischenzeit aktiv

    ' Events
    [*] - -> LeereZeitAnzeigen : Stoppuhr ist nicht gestartet
    [*] - -> SAktuelleZeitAnzeigen : Stoppuhr läuft

    ' States
    state LeereZeitAnzeigen as "Leere Zeit anzeigen"
    LeereZeitAnzeigen : 00:00:00 wird angezeigt
    
    state SAktuelleZeitAnzeigen as "Aktuelle Zeit anzeigen"
    SAktuelleZeitAnzeigen : Wenn 9:59:59 erreicht, werden Zehntelsekunden nicht mehr angezeigt

    state ZwischenZeitAnzeigen as "Zwischenzeit anzeigen"
    ZwischenZeitAnzeigen : Zeit beim Stopp wird angezeigt
    ZwischenZeitAnzeigen : Zähler lauft im Hintergrund weiter
    
    state EndzeitAnzeigen as "Endzeit anzeigen"
    EndzeitAnzeigen : Zeit beim Stopp wird angezeigt
    EndzeitAnzeigen : Zähler wird angehalten

    ' Events
    SAktuelleZeitAnzeigen -> SAktuelleZeitAnzeigen : Zeit + 1/10 Sekunde
        
    LeereZeitAnzeigen -> SAktuelleZeitAnzeigen : Taster S1 drücken

    SAktuelleZeitAnzeigen -> ZwischenZeitAnzeigen : Taster S3 drücken
    ZwischenZeitAnzeigen -> SAktuelleZeitAnzeigen : Taster S3 drücken
    ZwischenZeitAnzeigen - -> EndzeitAnzeigen : Taster S2 drücken

    SAktuelleZeitAnzeigen -> EndzeitAnzeigen : Taster S2 drücken
    EndzeitAnzeigen -> SAktuelleZeitAnzeigen : Taster S1 drücken
    EndzeitAnzeigen -> LeereZeitAnzeigen : Taster S3 drücken
}

state Timer {
    ' Eigenschaften
    Timer : LED 2 leuchtet

    ' Events
    [*] - -> ConfigTimer : Timer läuft nicht
    [*] - -> RunningTimer : Timer läuft

    state ConfigTimer as "Timer konfigurieren" {
        ' States
        state EingerichteteZeitAnzeigen as "Eingerichtete Zeit anzeigen"
        state ZeitErhöhen as "Zeit erhöhen"
        state ZeitVerringern as "Zeit verringern"

        ' Events
        [*] - -> EingerichteteZeitAnzeigen
       
        EingerichteteZeitAnzeigen -> ZeitErhöhen : Taster S1 drücken
        ZeitErhöhen -> EingerichteteZeitAnzeigen : Taster S1 loslassen
        EingerichteteZeitAnzeigen -left-> ZeitVerringern : Taster S2 drücken
        ZeitVerringern -> EingerichteteZeitAnzeigen : Taster S2 loslassen

        EingerichteteZeitAnzeigen -> RunningTimer : Taster S3 drücken
    }

    state RunningTimer as "Timer läuft" {
        ' States
        state TAktuelleZeitAnzeigen as "Aktuelle Zeit anzeigen"
        state TimerAbgelaufen as "Timer abgelaufen"
        TimerAbgelaufen : Buzzer ertönt

        state Pausieren as "Pausieren"
        Pausieren : Buzzer ertönt pausieren / fortsetzen

        ' Events
        [*] - -> TAktuelleZeitAnzeigen
        TAktuelleZeitAnzeigen -> TAktuelleZeitAnzeigen : Zeit - 1/10 Sekunde

        TAktuelleZeitAnzeigen - -> Pausieren : Taster S1 drücken 
        Pausieren -> TAktuelleZeitAnzeigen : Taster S2 drücken

        TAktuelleZeitAnzeigen - -> TimerAbgelaufen : Zeit abgelaufen
        TimerAbgelaufen -> ConfigTimer : 3 Sekunden abgelaufen

        TAktuelleZeitAnzeigen - -> ConfigTimer : Taster S3 drücken
    }
}

Stoppuhr -right-> Timer : Taster S3 lange drücken
Timer -left-> Stoppuhr : Taster S3 lange drücken

@enduml

@startuml "M242 - Stoppuhr"
hide empty description


[*] - -> Stoppuhr

note "LED 4 blinkt immer im 2Hz interval" AS N1

state Stoppuhr {
    Stoppuhr : LED 1 leuchtet
    Stoppuhr : LED 3 leuchtet, wenn Stoppuhr läuft
    Stoppuhr : LED 3 blinkt, wenn Zwischenzeit aktiv

    [*] - -> LeereZeitAnzeigen : Stoppuhr ist nicht gestartet
    [*] - -> SAktuelleZeitAnzeigen : Stoppuhr läuft

    state LeereZeitAnzeigen as "Leere Zeit anzeigen"
    LeereZeitAnzeigen : 00:00:00 wird angezeigt
    
    state SAktuelleZeitAnzeigen as "Aktuelle Zeit anzeigen"
    SAktuelleZeitAnzeigen : Wenn 9:59:59 erreicht, werden Zehntelsekunden nicht mehr angezeigt

    state ZwischenZeitAnzeigen as "Zwischenzeit anzeigen"
    ZwischenZeitAnzeigen : Zeit beim Stopp wird angezeigt
    ZwischenZeitAnzeigen : Zähler lauft im Hintergrund weiter
    
    state EndzeitAnzeigen as "Endzeit anzeigen"
    EndzeitAnzeigen : Zeit beim Stopp wird angezeigt
    EndzeitAnzeigen : Zähler wird angehalten

    SAktuelleZeitAnzeigen -> SAktuelleZeitAnzeigen : Zeit + 1/10 Sekunde
        
    LeereZeitAnzeigen -> SAktuelleZeitAnzeigen : Taster S1 drücken

    SAktuelleZeitAnzeigen -> ZwischenZeitAnzeigen : Taster S3 drücken
    ZwischenZeitAnzeigen -> SAktuelleZeitAnzeigen : Taster S3 drücken
    ZwischenZeitAnzeigen - -> EndzeitAnzeigen : Taster S2 drücken

    SAktuelleZeitAnzeigen -> EndzeitAnzeigen : Taster S2 drücken
    EndzeitAnzeigen -> SAktuelleZeitAnzeigen : Taster S1 drücken
    EndzeitAnzeigen -> LeereZeitAnzeigen : Taster S3 drücken
}

state Timer {
    Timer : LED 2 leuchtet

    [*] - -> ConfigTimer : Timer läuft nicht
    [*] - -> RunningTimer : Timer läuft

    state ConfigTimer as "Timer konfigurieren" {
        state EingerichteteZeitAnzeigen as "Eingerichtete Zeit anzeigen"
        state ZeitErhöhen as "Zeit erhöhen"
        state ZeitVerringern as "Zeit verringern"

        [*] - -> EingerichteteZeitAnzeigen
       
        EingerichteteZeitAnzeigen -> ZeitErhöhen : Taster S1 drücken
        ZeitErhöhen -> EingerichteteZeitAnzeigen : Taster S1 loslassen
        EingerichteteZeitAnzeigen -left-> ZeitVerringern : Taster S2 drücken
        ZeitVerringern -> EingerichteteZeitAnzeigen : Taster S2 loslassen

        EingerichteteZeitAnzeigen -> RunningTimer : Taster S3 drücken
    }

    state RunningTimer as "Timer läuft" {
        state TAktuelleZeitAnzeigen as "Aktuelle Zeit anzeigen"
        state TimerAbgelaufen as "Timer abgelaufen"
        TimerAbgelaufen : Buzzer ertönt

        state Pausieren as "Pausieren"
        Pausieren : Buzzer ertönt pausieren / fortsetzen

        [*] - -> TAktuelleZeitAnzeigen
        TAktuelleZeitAnzeigen -> TAktuelleZeitAnzeigen : Zeit - 1/10 Sekunde

        TAktuelleZeitAnzeigen - -> Pausieren : Taster S1 drücken 
        Pausieren -> TAktuelleZeitAnzeigen : Taster S2 drücken

        TAktuelleZeitAnzeigen - -> TimerAbgelaufen : Zeit abgelaufen
        TimerAbgelaufen -> ConfigTimer : 3 Sekunden abgelaufen

        TAktuelleZeitAnzeigen - -> ConfigTimer : Taster S3 drücken
    }
}

Stoppuhr -right-> Timer : Taster S3 lange drücken
Timer -left-> Stoppuhr : Taster S3 lange drücken

@enduml

PlantUML version 1.2022.7(Mon Aug 22 19:01:30 CEST 2022)
(GPL source distribution)
Java Runtime: OpenJDK Runtime Environment
JVM: OpenJDK 64-Bit Server VM
Default Encoding: Cp1252
Language: de
Country: CH
--></g></svg>