<?xml version="1.0" encoding="UTF-8" standalone="no"?><svg xmlns="http://www.w3.org/2000/svg" xmlns:xlink="http://www.w3.org/1999/xlink" contentStyleType="text/css" height="1340px" preserveAspectRatio="none" style="width:2324px;height:1340px;background:#FFFFFF;" version="1.1" viewBox="0 0 2324 1340" width="2324px" zoomAndPan="magnify"><defs/><g><rect fill="none" height="27.6094" id="_title" style="stroke:none;stroke-width:1.0;" width="351" x="976.5" y="5"/><text fill="#000000" font-family="sans-serif" font-size="14" font-weight="bold" lengthAdjust="spacing" textLength="341" x="981.5" y="24.5332">M242 - Stoppuhr &amp; Timer - State-Event-Diagramm</text><!--MD5=[d218cd141be9b83104949cc4c5ed4d6d]
cluster Timer--><g id="cluster_Timer"><path d="M1355.5,295.6094 L2298.5,295.6094 A12.5,12.5 0 0 1 2311,308.1094 L2311,345.8281 L1343,345.8281 L1343,308.1094 A12.5,12.5 0 0 1 1355.5,295.6094 " fill="#F1F1F1" style="stroke:#F1F1F1;stroke-width:1.0;"/><rect fill="none" height="1039" rx="12.5" ry="12.5" style="stroke:#181818;stroke-width:0.5;" width="968" x="1343" y="295.6094"/><line style="stroke:#181818;stroke-width:0.5;" x1="1343" x2="2311" y1="345.8281" y2="345.8281"/><line style="stroke:#181818;stroke-width:0.5;" x1="1343" x2="2311" y1="323.2188" y2="323.2188"/><text fill="#000000" font-family="sans-serif" font-size="14" lengthAdjust="spacing" textLength="36" x="1780.5" y="314.1426">Timer</text><text fill="#000000" font-family="sans-serif" font-size="14" lengthAdjust="spacing" textLength="93" x="1348" y="340.252">LED 2 leuchtet</text></g><!--MD5=[a1a58a88c54b521485b244b5d3aa894d]
cluster ConfigTimer--><g id="cluster_ConfigTimer"><path d="M1416.5,1090.6094 L2258.5,1090.6094 A12.5,12.5 0 0 1 2271,1103.1094 L2271,1118.2188 L1404,1118.2188 L1404,1103.1094 A12.5,12.5 0 0 1 1416.5,1090.6094 " fill="#F1F1F1" style="stroke:#F1F1F1;stroke-width:1.0;"/><rect fill="none" height="204" rx="12.5" ry="12.5" style="stroke:#181818;stroke-width:0.5;" width="867" x="1404" y="1090.6094"/><line style="stroke:#181818;stroke-width:0.5;" x1="1404" x2="2271" y1="1118.2188" y2="1118.2188"/><text fill="#000000" font-family="sans-serif" font-size="14" lengthAdjust="spacing" textLength="123" x="1776" y="1109.1426">Timer konfigurieren</text></g><!--MD5=[34d2dfc6aed3b420e435e6a75d65bad1]
cluster RunningTimer--><g id="cluster_RunningTimer"><path d="M1522.5,685.6094 L2016.5,685.6094 A12.5,12.5 0 0 1 2029,698.1094 L2029,713.2188 L1510,713.2188 L1510,698.1094 A12.5,12.5 0 0 1 1522.5,685.6094 " fill="#F1F1F1" style="stroke:#F1F1F1;stroke-width:1.0;"/><rect fill="none" height="339" rx="12.5" ry="12.5" style="stroke:#181818;stroke-width:0.5;" width="519" x="1510" y="685.6094"/><line style="stroke:#181818;stroke-width:0.5;" x1="1510" x2="2029" y1="713.2188" y2="713.2188"/><text fill="#000000" font-family="sans-serif" font-size="14" lengthAdjust="spacing" textLength="67" x="1736" y="704.1426">Timer läuft</text></g><ellipse cx="1951" cy="372.6094" fill="#222222" rx="10" ry="10" style="stroke:none;stroke-width:1.0;"/><rect fill="#F1F1F1" height="40" rx="12.5" ry="12.5" style="stroke:#181818;stroke-width:0.5;" width="181" x="1765.5" y="1223.1094"/><text fill="#000000" font-family="sans-serif" font-size="14" lengthAdjust="spacing" textLength="171" x="1770.5" y="1248.8379">Eingerichtete Zeit anzeigen</text><g id="Timer.ConfigTimer.ZeitErhöhen"><rect fill="#F1F1F1" height="55.2188" rx="12.5" ry="12.5" style="stroke:#181818;stroke-width:0.5;" width="157" x="2089.5" y="1215.6094"/><line style="stroke:#181818;stroke-width:0.5;" x1="2089.5" x2="2246.5" y1="1243.2188" y2="1243.2188"/><text fill="#000000" font-family="sans-serif" font-size="14" lengthAdjust="spacing" textLength="80" x="2128" y="1235.1426">Zeit erhöhen</text><text fill="#000000" font-family="sans-serif" font-size="14" lengthAdjust="spacing" textLength="137" x="2094.5" y="1262.752">Um 1 Sekunde erhöht</text></g><g id="Timer.ConfigTimer.ZeitVerringern"><rect fill="#F1F1F1" height="55.2188" rx="12.5" ry="12.5" style="stroke:#181818;stroke-width:0.5;" width="177" x="1436.5" y="1215.6094"/><line style="stroke:#181818;stroke-width:0.5;" x1="1436.5" x2="1613.5" y1="1243.2188" y2="1243.2188"/><text fill="#000000" font-family="sans-serif" font-size="14" lengthAdjust="spacing" textLength="92" x="1479" y="1235.1426">Zeit verringern</text><text fill="#000000" font-family="sans-serif" font-size="14" lengthAdjust="spacing" textLength="157" x="1441.5" y="1262.752">Um 1 Sekunde verringert</text></g><ellipse cx="1856" cy="1144.6094" fill="#222222" rx="10" ry="10" style="stroke:none;stroke-width:1.0;"/><rect fill="#F1F1F1" height="40" rx="12.5" ry="12.5" style="stroke:#181818;stroke-width:0.5;" width="148" x="1542" y="827.6094"/><text fill="#000000" font-family="sans-serif" font-size="14" lengthAdjust="spacing" textLength="138" x="1547" y="853.3379">Aktuelle Zeit anzeigen</text><g id="Timer.RunningTimer.Pausieren"><rect fill="#F1F1F1" height="55.2188" rx="12.5" ry="12.5" style="stroke:#181818;stroke-width:0.5;" width="147" x="1738.5" y="945.6094"/><line style="stroke:#181818;stroke-width:0.5;" x1="1738.5" x2="1885.5" y1="973.2188" y2="973.2188"/><text fill="#000000" font-family="sans-serif" font-size="14" lengthAdjust="spacing" textLength="64" x="1780" y="965.1426">Pausieren</text><text fill="#000000" font-family="sans-serif" font-size="14" lengthAdjust="spacing" textLength="127" x="1743.5" y="992.752">Zeit wird angehalten</text></g><g id="Timer.RunningTimer.TimerAbgelaufen"><rect fill="#F1F1F1" height="55.2188" rx="12.5" ry="12.5" style="stroke:#181818;stroke-width:0.5;" width="131" x="1553.5" y="945.6094"/><line style="stroke:#181818;stroke-width:0.5;" x1="1553.5" x2="1684.5" y1="973.2188" y2="973.2188"/><text fill="#000000" font-family="sans-serif" font-size="14" lengthAdjust="spacing" textLength="111" x="1563.5" y="965.1426">Timer abgelaufen</text><text fill="#000000" font-family="sans-serif" font-size="14" lengthAdjust="spacing" textLength="83" x="1558.5" y="992.752">Buzzer ertönt</text></g><ellipse cx="1814" cy="739.6094" fill="#222222" rx="10" ry="10" style="stroke:none;stroke-width:1.0;"/><ellipse cx="590" cy="57.6094" fill="#222222" rx="10" ry="10" style="stroke:none;stroke-width:1.0;"/><g id="elem_N1"><path d="M635.5,44.6094 L635.5,70.9609 L856.5,70.9609 L856.5,54.6094 L846.5,44.6094 L635.5,44.6094 " fill="#FEFFDD" style="stroke:#181818;stroke-width:0.5;"/><path d="M846.5,44.6094 L846.5,54.6094 L856.5,54.6094 L846.5,44.6094 " fill="#FEFFDD" style="stroke:#181818;stroke-width:1.0;"/><text fill="#000000" font-family="sans-serif" font-size="13" lengthAdjust="spacing" textLength="200" x="641.5" y="63.1045">LED 4 blinkt immer im 2Hz interval</text></g><path d="M19.5,131.6094 L1160.44,131.6094 A12.5,12.5 0 0 1 1172.94,144.1094 L1172.94,209.5 L7,209.5 L7,144.1094 A12.5,12.5 0 0 1 19.5,131.6094 " fill="#F1F1F1" style="stroke:#F1F1F1;stroke-width:1.0;"/><rect fill="none" height="481.7188" rx="12.5" ry="12.5" style="stroke:#181818;stroke-width:0.5;" width="1165.94" x="7" y="131.6094"/><line style="stroke:#181818;stroke-width:0.5;" x1="7" x2="1172.94" y1="209.5" y2="209.5"/><line style="stroke:#181818;stroke-width:0.5;" x1="7" x2="1172.94" y1="159.2188" y2="159.2188"/><text fill="#000000" font-family="sans-serif" font-size="14" lengthAdjust="spacing" textLength="58" x="560.97" y="151.1426">Stoppuhr</text><text fill="#000000" font-family="sans-serif" font-size="12" lengthAdjust="spacing" textLength="80" x="12" y="171.6758">LED 1 leuchtet</text><text fill="#000000" font-family="sans-serif" font-size="12" lengthAdjust="spacing" textLength="195" x="12" y="186.7695">LED 3 leuchtet, wenn Stoppuhr läuft</text><text fill="#000000" font-family="sans-serif" font-size="12" lengthAdjust="spacing" textLength="203" x="12" y="201.8633">LED 3 blinkt, wenn Zwischenzeit aktiv</text><ellipse cx="765.94" cy="230.5" fill="#222222" rx="10" ry="10" style="stroke:none;stroke-width:1.0;"/><g id="Stoppuhr.SAktuelleZeitAnzeigen"><rect fill="#F1F1F1" height="55.2188" rx="12.5" ry="12.5" style="stroke:#181818;stroke-width:0.5;" width="463" x="229.44" y="294.5"/><line style="stroke:#181818;stroke-width:0.5;" x1="229.44" x2="692.44" y1="322.1094" y2="322.1094"/><text fill="#000000" font-family="sans-serif" font-size="14" lengthAdjust="spacing" textLength="138" x="391.94" y="314.0332">Aktuelle Zeit anzeigen</text><text fill="#000000" font-family="sans-serif" font-size="14" lengthAdjust="spacing" textLength="443" x="234.44" y="341.6426">Wenn 9:59:59 erreicht, werden Zehntelsekunden nicht mehr angezeigt</text></g><g id="Stoppuhr.LeereZeitAnzeigen"><rect fill="#F1F1F1" height="55.2188" rx="12.5" ry="12.5" style="stroke:#181818;stroke-width:0.5;" width="170" x="747.94" y="539.5"/><line style="stroke:#181818;stroke-width:0.5;" x1="747.94" x2="917.94" y1="567.1094" y2="567.1094"/><text fill="#000000" font-family="sans-serif" font-size="14" lengthAdjust="spacing" textLength="125" x="770.44" y="559.0332">Leere Zeit anzeigen</text><text fill="#000000" font-family="sans-serif" font-size="14" lengthAdjust="spacing" textLength="150" x="752.94" y="586.6426">00:00:00 wird angezeigt</text></g><g id="Stoppuhr.ZwischenZeitAnzeigen"><rect fill="#F1F1F1" height="72.8281" rx="12.5" ry="12.5" style="stroke:#181818;stroke-width:0.5;" width="228" x="127.94" y="403.5"/><line style="stroke:#181818;stroke-width:0.5;" x1="127.94" x2="355.94" y1="431.1094" y2="431.1094"/><text fill="#000000" font-family="sans-serif" font-size="14" lengthAdjust="spacing" textLength="140" x="171.94" y="423.0332">Zwischenzeit anzeigen</text><text fill="#000000" font-family="sans-serif" font-size="14" lengthAdjust="spacing" textLength="192" x="132.94" y="450.6426">Zeit beim Stopp wird angezeigt</text><text fill="#000000" font-family="sans-serif" font-size="14" lengthAdjust="spacing" textLength="208" x="132.94" y="468.252">Zähler lauft im Hintergrund weiter</text></g><g id="Stoppuhr.EndzeitAnzeigen"><rect fill="#F1F1F1" height="72.8281" rx="12.5" ry="12.5" style="stroke:#181818;stroke-width:0.5;" width="212" x="409.94" y="530.5"/><line style="stroke:#181818;stroke-width:0.5;" x1="409.94" x2="621.94" y1="558.1094" y2="558.1094"/><text fill="#000000" font-family="sans-serif" font-size="14" lengthAdjust="spacing" textLength="107" x="462.44" y="550.0332">Endzeit anzeigen</text><text fill="#000000" font-family="sans-serif" font-size="14" lengthAdjust="spacing" textLength="192" x="414.94" y="577.6426">Zeit beim Stopp wird angezeigt</text><text fill="#000000" font-family="sans-serif" font-size="14" lengthAdjust="spacing" textLength="144" x="414.94" y="595.252">Zähler wird angehalten</text></g><!--MD5=[abb23f2ddbfe905a8c7e29a761bdbc8d]
link *start*Stoppuhr to SAktuelleZeitAnzeigen--><g id="link_*start*Stoppuhr_SAktuelleZeitAnzeigen"><path d="M756.47,234.28 C726.42,243.1 630.71,271.18 556.26,293.03 " fill="none" id="*start*Stoppuhr-to-SAktuelleZeitAnzeigen" style="stroke:#181818;stroke-width:1.0;"/><polygon fill="#181818" points="551.39,294.46,561.15,295.78,556.19,293.06,558.91,288.1,551.39,294.46" style="stroke:#181818;stroke-width:1.0;"/><text fill="#000000" font-family="sans-serif" font-size="13" lengthAdjust="spacing" textLength="80" x="667.94" y="272.9951">Stoppuhr läuft</text></g><!--MD5=[876f016c794e417d30e82d2a589edab3]
link *start*Stoppuhr to LeereZeitAnzeigen--><g id="link_*start*Stoppuhr_LeereZeitAnzeigen"><path d="M775.88,232.04 C796.75,233.54 846.15,239.04 881.94,258.5 C943.24,291.83 967.65,303.28 994.94,367.5 C1024.3,436.63 944.45,500.92 886.69,536.68 " fill="none" id="*start*Stoppuhr-to-LeereZeitAnzeigen" style="stroke:#181818;stroke-width:1.0;"/><polygon fill="#181818" points="882.22,539.42,891.9825,538.1189,886.4807,536.8035,887.7961,531.3017,882.22,539.42" style="stroke:#181818;stroke-width:1.0;"/><text fill="#000000" font-family="sans-serif" font-size="13" lengthAdjust="spacing" textLength="157" x="1000.94" y="381.9951">Stoppuhr ist nicht gestartet</text></g><!--MD5=[025c03dcfe636bb5cd4c8a361e1bb1fc]
link *start*Stoppuhr to ZwischenZeitAnzeigen--><g id="link_*start*Stoppuhr_ZwischenZeitAnzeigen"><path d="M755.87,231.59 C673,232.46 105.49,240.35 55.94,294.5 C18,335.95 74.39,374.54 134.76,401.39 " fill="none" id="*start*Stoppuhr-to-ZwischenZeitAnzeigen" style="stroke:#181818;stroke-width:1.0;"/><polygon fill="#181818" points="139.49,403.47,132.8669,396.1806,134.9145,401.4539,129.6412,403.5015,139.49,403.47" style="stroke:#181818;stroke-width:1.0;"/><text fill="#000000" font-family="sans-serif" font-size="13" lengthAdjust="spacing" textLength="162" x="56.94" y="327.4951">Zwischenzeit wird angezeigt</text></g><!--MD5=[ae6a7630d9474e215388c190f93686b3]
link *start*Stoppuhr to EndzeitAnzeigen--><g id="link_*start*Stoppuhr_EndzeitAnzeigen"><path d="M775.03,235.21 C792.96,243.06 832.53,263.27 848.94,294.5 C858.34,312.41 866.27,460.47 853.94,476.5 C826.17,512.58 714.88,537.11 627.49,551.23 " fill="none" id="*start*Stoppuhr-to-EndzeitAnzeigen" style="stroke:#181818;stroke-width:1.0;"/><polygon fill="#181818" points="622.3,552.07,631.8175,554.6032,627.2376,551.2828,630.558,546.703,622.3,552.07" style="stroke:#181818;stroke-width:1.0;"/><text fill="#000000" font-family="sans-serif" font-size="13" lengthAdjust="spacing" textLength="124" x="859.94" y="381.9951">Stoppuhr ist gestoppt</text></g><!--MD5=[02bf5b7f2e5a08ad49e01bca58df50f0]
link SAktuelleZeitAnzeigen to SAktuelleZeitAnzeigen--><g id="link_SAktuelleZeitAnzeigen_SAktuelleZeitAnzeigen"><path d="M692.6,315.54 C703.83,317.16 710.44,319.31 710.44,322 C710.44,324.23 705.91,326.09 697.97,327.58 " fill="none" id="SAktuelleZeitAnzeigen-to-SAktuelleZeitAnzeigen" style="stroke:#181818;stroke-width:1.0;"/><polygon fill="#181818" points="692.6,328.46,702.1305,330.9439,697.5335,327.6473,700.8301,323.0503,692.6,328.46" style="stroke:#181818;stroke-width:1.0;"/><text fill="#000000" font-family="sans-serif" font-size="13" lengthAdjust="spacing" textLength="117" x="716.44" y="327.4951">Zeit + 1/10 Sekunde</text></g><!--MD5=[b2c8003b86c560f6da3674eb2e6b93ac]
link LeereZeitAnzeigen to SAktuelleZeitAnzeigen--><g id="link_LeereZeitAnzeigen_SAktuelleZeitAnzeigen"><path d="M814.98,539.23 C789.8,503.61 740.8,440.78 684.94,403.5 C651.05,380.89 610.05,363.75 572.44,351.23 " fill="none" id="LeereZeitAnzeigen-to-SAktuelleZeitAnzeigen" style="stroke:#181818;stroke-width:1.0;"/><polygon fill="#181818" points="567.39,349.57,574.6991,356.1713,572.1419,351.1254,577.1878,348.5682,567.39,349.57" style="stroke:#181818;stroke-width:1.0;"/><text fill="#000000" font-family="sans-serif" font-size="13" lengthAdjust="spacing" textLength="106" x="763.94" y="445.4951">Taster S1 drücken</text></g><!--MD5=[3f23f84a75865b70e9a88ad873dd52ec]
link SAktuelleZeitAnzeigen to ZwischenZeitAnzeigen--><g id="link_SAktuelleZeitAnzeigen_ZwischenZeitAnzeigen"><path d="M360.43,349.56 C347.11,354.69 333.92,360.64 321.94,367.5 C317.31,370.14 300.86,384.69 284.06,399.98 " fill="none" id="SAktuelleZeitAnzeigen-to-ZwischenZeitAnzeigen" style="stroke:#181818;stroke-width:1.0;"/><polygon fill="#181818" points="280.25,403.46,289.5906,400.3369,283.9393,400.0853,284.191,394.434,280.25,403.46" style="stroke:#181818;stroke-width:1.0;"/><text fill="#000000" font-family="sans-serif" font-size="13" lengthAdjust="spacing" textLength="106" x="322.94" y="381.9951">Taster S3 drücken</text></g><!--MD5=[c6de83ab15de6fde18ca19e9c2ad90ac]
link ZwischenZeitAnzeigen to SAktuelleZeitAnzeigen--><g id="link_ZwischenZeitAnzeigen_SAktuelleZeitAnzeigen"><path d="M195.97,403.2 C186.27,391.5 181.46,378.66 190.94,367.5 C197.48,359.79 209.33,353.41 224.52,348.13 " fill="none" id="ZwischenZeitAnzeigen-to-SAktuelleZeitAnzeigen" style="stroke:#181818;stroke-width:1.0;"/><polygon fill="#181818" points="229.34,346.53,219.5361,345.5902,224.598,348.1154,222.0728,353.1774,229.34,346.53" style="stroke:#181818;stroke-width:1.0;"/><text fill="#000000" font-family="sans-serif" font-size="13" lengthAdjust="spacing" textLength="106" x="191.94" y="381.9951">Taster S3 drücken</text></g><!--MD5=[d2c1d6d579be35e60d8c6c8f4dfd10e2]
link ZwischenZeitAnzeigen to EndzeitAnzeigen--><g id="link_ZwischenZeitAnzeigen_EndzeitAnzeigen"><path d="M274.68,476.51 C288.22,489.43 304.76,503.14 321.94,512.5 C347.45,526.41 376.87,536.93 404.96,544.8 " fill="none" id="ZwischenZeitAnzeigen-to-EndzeitAnzeigen" style="stroke:#181818;stroke-width:1.0;"/><polygon fill="#181818" points="409.82,546.14,402.2036,539.8957,404.9992,544.8136,400.0813,547.6091,409.82,546.14" style="stroke:#181818;stroke-width:1.0;"/><text fill="#000000" font-family="sans-serif" font-size="13" lengthAdjust="spacing" textLength="106" x="322.94" y="508.9951">Taster S2 drücken</text></g><!--MD5=[f1bf7bb49ad1e4ff831bafd902887e0a]
link SAktuelleZeitAnzeigen to EndzeitAnzeigen--><g id="link_SAktuelleZeitAnzeigen_EndzeitAnzeigen"><path d="M455.62,349.72 C450.5,380.87 445.24,433.56 457.94,476.5 C463.07,493.88 472.76,511.05 482.77,525.63 " fill="none" id="SAktuelleZeitAnzeigen-to-EndzeitAnzeigen" style="stroke:#181818;stroke-width:1.0;"/><polygon fill="#181818" points="485.88,530.07,484.0003,520.4022,483.0146,525.9725,477.4443,524.9868,485.88,530.07" style="stroke:#181818;stroke-width:1.0;"/><text fill="#000000" font-family="sans-serif" font-size="13" lengthAdjust="spacing" textLength="106" x="458.94" y="445.4951">Taster S2 drücken</text></g><!--MD5=[98a018fa868472a5bf0b898f53a8366d]
link EndzeitAnzeigen to SAktuelleZeitAnzeigen--><g id="link_EndzeitAnzeigen_SAktuelleZeitAnzeigen"><path d="M541.99,530.21 C563.14,496.43 586.38,444.93 565.94,403.5 C555.54,382.43 536.7,365.35 517.81,352.43 " fill="none" id="EndzeitAnzeigen-to-SAktuelleZeitAnzeigen" style="stroke:#181818;stroke-width:1.0;"/><polygon fill="#181818" points="513.53,349.57,518.7799,357.903,517.6837,352.3534,523.2333,351.2572,513.53,349.57" style="stroke:#181818;stroke-width:1.0;"/><text fill="#000000" font-family="sans-serif" font-size="13" lengthAdjust="spacing" textLength="106" x="573.94" y="445.4951">Taster S1 drücken</text></g><!--MD5=[096baae9f97fc5bcb66785888fe2d05e]
link EndzeitAnzeigen to LeereZeitAnzeigen--><g id="link_EndzeitAnzeigen_LeereZeitAnzeigen"><path d="M622.37,567 C661.45,567 705.27,567 742.78,567 " fill="none" id="EndzeitAnzeigen-to-LeereZeitAnzeigen" style="stroke:#181818;stroke-width:1.0;"/><polygon fill="#181818" points="747.8,567,738.8,563,742.8,567,738.8,571,747.8,567" style="stroke:#181818;stroke-width:1.0;"/><text fill="#000000" font-family="sans-serif" font-size="13" lengthAdjust="spacing" textLength="106" x="631.94" y="560.4951">Taster S3 drücken</text></g><!--MD5=[6b86af7d250541b200e640f6fd6ff49a]
link *start to Stoppuhr--><g id="link_*start_Stoppuhr"><path d="M590,67.6394 C590,78.9594 590,100.0894 590,126.1394 " fill="none" id="*start-to-Stoppuhr" style="stroke:#181818;stroke-width:1.0;"/><polygon fill="#181818" points="590,131.4094,594,122.4094,590,126.4094,586,122.4094,590,131.4094" style="stroke:#181818;stroke-width:1.0;"/></g><!--MD5=[560872e3b9d69698e957dec19def5e56]
link *start*Timer to ConfigTimer--><g id="link_*start*Timer_ConfigTimer"><path d="M1957.38,380.9794 C1988.07,417.1894 2119,580.9594 2119,738.6094 C2119,738.6094 2119,738.6094 2119,974.1094 C2119,1026.7494 2069.92,1021.1794 2021,1040.6094 C1953.64,1067.3694 1932.19,1060.1594 1860,1066.6094 C1847.82,1067.6994 1429.05,1066.3994 1420,1074.6094 C1417.2313,1077.1206 1415.0158,1080.0355 1413.2602,1083.2193 C1412.3824,1084.8113 1411.6196,1086.4705 1410.9601,1088.1801 C1410.7952,1088.6075 1410.6367,1089.038 1410.4846,1089.4715 C1410.4085,1089.6882 1410.334,1089.9057 1410.261,1090.1238 C1410.2246,1090.2329 1410.1885,1090.3421 1410.1528,1090.4515 " fill="none" id="*start*Timer-to-ConfigTimer" style="stroke:#181818;stroke-width:1.0;"/><polygon fill="#181818" points="1410.1528,1090.4515,1416.7479,1083.1369,1411.7042,1085.6983,1409.1428,1080.6546,1410.1528,1090.4515" style="stroke:#181818;stroke-width:1.0;"/><text fill="#000000" font-family="sans-serif" font-size="13" lengthAdjust="spacing" textLength="92" x="2120" y="853.1045">Timer läuft nicht</text></g><!--MD5=[1a608ec24145787c5a8da4388cd7b2c5]
link *start*Timer to RunningTimer--><g id="link_*start*Timer_RunningTimer"><path d="M1953.95,382.5194 C1964.88,417.4094 1999.38,546.2294 1937,613.6094 C1811.77,748.8994 1655.05,537.9594 1526,669.6094 C1523.3825,672.2794 1521.2816,675.3145 1519.6105,678.5872 C1518.7749,680.2236 1518.0468,681.9194 1517.4154,683.6585 C1517.2575,684.0933 1517.1057,684.5308 1516.9597,684.9708 C1516.9232,685.0808 1516.8871,685.191 1516.8513,685.3013 " fill="none" id="*start*Timer-to-RunningTimer" style="stroke:#181818;stroke-width:1.0;"/><polygon fill="#181818" points="1516.8513,685.3013,1523.4319,677.9735,1518.3933,680.545,1515.8219,675.5064,1516.8513,685.3013" style="stroke:#181818;stroke-width:1.0;"/><text fill="#000000" font-family="sans-serif" font-size="13" lengthAdjust="spacing" textLength="60" x="1899" y="658.1045">Timer läuft</text></g><!--MD5=[ab1c9ad4db6a4ba4639618b5538132f0]
link *start*ConfigTimer to EingerichteteZeitAnzeigen--><g id="link_*start*ConfigTimer_EingerichteteZeitAnzeigen"><path d="M1856,1154.8594 C1856,1169.2094 1856,1197.3094 1856,1217.7594 " fill="none" id="*start*ConfigTimer-to-EingerichteteZeitAnzeigen" style="stroke:#181818;stroke-width:1.0;"/><polygon fill="#181818" points="1856,1222.7794,1860,1213.7794,1856,1217.7794,1852,1213.7794,1856,1222.7794" style="stroke:#181818;stroke-width:1.0;"/></g><!--MD5=[a1fa994246cf99cae6c815286189b47a]
link EingerichteteZeitAnzeigen to ZeitErhöhen--><g id="link_EingerichteteZeitAnzeigen_ZeitErhöhen"><path d="M1946.56,1262.0294 C1952.45,1262.8494 1958.3,1263.5594 1964,1264.1094 C2011.78,1268.7094 2024.28,1269.2694 2072,1264.1094 C2076,1263.6794 2080.07,1263.1494 2084.17,1262.5394 " fill="none" id="EingerichteteZeitAnzeigen-to-ZeitErhöhen" style="stroke:#181818;stroke-width:1.0;"/><polygon fill="#181818" points="2089.38,1261.7294,2079.8708,1259.165,2084.4398,1262.5004,2081.1045,1267.0694,2089.38,1261.7294" style="stroke:#181818;stroke-width:1.0;"/><text fill="#000000" font-family="sans-serif" font-size="13" lengthAdjust="spacing" textLength="106" x="1965" y="1260.6045">Taster S1 drücken</text></g><!--MD5=[d9cffa0b86fd3b849d28972b63c249cd]
link ZeitErhöhen to EingerichteteZeitAnzeigen--><g id="link_ZeitErhöhen_EingerichteteZeitAnzeigen"><path d="M2089.3,1243.1094 C2047.51,1243.1094 1995.82,1243.1094 1951.73,1243.1094 " fill="none" id="ZeitErhöhen-to-EingerichteteZeitAnzeigen" style="stroke:#181818;stroke-width:1.0;"/><polygon fill="#181818" points="1946.66,1243.1094,1955.66,1247.1094,1951.66,1243.1094,1955.66,1239.1094,1946.66,1243.1094" style="stroke:#181818;stroke-width:1.0;"/><text fill="#000000" font-family="sans-serif" font-size="13" lengthAdjust="spacing" textLength="115" x="1960.5" y="1236.6045">Taster S1 loslassen</text></g><!--MD5=[f2d9fcf0988ee0e0bcb87e32af3409e8]
reverse link ZeitVerringern to EingerichteteZeitAnzeigen--><g id="link_ZeitVerringern_EingerichteteZeitAnzeigen"><path d="M1618.9,1262.1994 C1624.5,1262.9494 1630.07,1263.5994 1635.5,1264.1094 C1683.29,1268.6094 1695.7,1268.5294 1743.5,1264.1094 C1750.62,1263.4494 1757.97,1262.5594 1765.33,1261.5194 " fill="none" id="ZeitVerringern-backto-EingerichteteZeitAnzeigen" style="stroke:#181818;stroke-width:1.0;"/><polygon fill="#181818" points="1613.75,1261.4794,1622.117,1266.6749,1618.7028,1262.1645,1623.2132,1258.7503,1613.75,1261.4794" style="stroke:#181818;stroke-width:1.0;"/><text fill="#000000" font-family="sans-serif" font-size="13" lengthAdjust="spacing" textLength="106" x="1636.5" y="1260.6045">Taster S2 drücken</text></g><!--MD5=[5df3bbd0147b250ad0be27db71bd8aed]
link ZeitVerringern to EingerichteteZeitAnzeigen--><g id="link_ZeitVerringern_EingerichteteZeitAnzeigen"><path d="M1613.7,1243.1094 C1658.97,1243.1094 1714.09,1243.1094 1760.31,1243.1094 " fill="none" id="ZeitVerringern-to-EingerichteteZeitAnzeigen" style="stroke:#181818;stroke-width:1.0;"/><polygon fill="#181818" points="1765.32,1243.1094,1756.32,1239.1094,1760.32,1243.1094,1756.32,1247.1094,1765.32,1243.1094" style="stroke:#181818;stroke-width:1.0;"/><text fill="#000000" font-family="sans-serif" font-size="13" lengthAdjust="spacing" textLength="115" x="1632" y="1236.6045">Taster S2 loslassen</text></g><!--MD5=[c7d1638a0f943ddd31f55ef278cb2291]
link EingerichteteZeitAnzeigen to RunningTimer--><g id="link_EingerichteteZeitAnzeigen_RunningTimer"><path d="M1765.41,1231.1094 C1638.18,1214.7294 1419.37,1182.8494 1396,1154.6094 C1335.32,1081.2994 1364.8725,978.8369 1410.0638,894.1894 C1432.6594,851.8656 1459.1647,813.9956 1480.2555,786.4503 C1490.8009,772.6777 1499.9926,761.4862 1506.6652,753.6097 C1507.4993,752.6252 1508.294,751.6924 1509.0471,750.8129 C1509.2353,750.593 1509.421,750.3764 1509.604,750.1632 " fill="none" id="EingerichteteZeitAnzeigen-to-RunningTimer" style="stroke:#181818;stroke-width:1.0;"/><polygon fill="#181818" points="1509.604,750.1632,1500.7067,754.3866,1506.3472,753.9571,1506.7768,759.5976,1509.604,750.1632" style="stroke:#181818;stroke-width:1.0;"/><text fill="#000000" font-family="sans-serif" font-size="13" lengthAdjust="spacing" textLength="106" x="1385" y="978.6045">Taster S3 drücken</text></g><!--MD5=[4831a708bc6b2c0b0b3e3c052bf09cf4]
link *start*RunningTimer to TAktuelleZeitAnzeigen--><g id="link_*start*RunningTimer_TAktuelleZeitAnzeigen"><path d="M1806.08,745.8694 C1804.11,747.1294 1802,748.4394 1800,749.6094 C1752.65,777.2394 1696.74,806.2194 1659.08,825.2194 " fill="none" id="*start*RunningTimer-to-TAktuelleZeitAnzeigen" style="stroke:#181818;stroke-width:1.0;"/><polygon fill="#181818" points="1654.58,827.4894,1664.4163,826.9918,1659.0406,825.2305,1660.802,819.8548,1654.58,827.4894" style="stroke:#181818;stroke-width:1.0;"/><text fill="#000000" font-family="sans-serif" font-size="13" lengthAdjust="spacing" textLength="60" x="1746" y="794.1045">Timer läuft</text></g><!--MD5=[e30a7230939f2fd39edcd5f4558f2292]
link *start*RunningTimer to Pausieren--><g id="link_*start*RunningTimer_Pausieren"><path d="M1818.59,748.5494 C1830.81,769.3294 1865.74,826.5294 1903,867.6094 C1920.74,887.1694 1952.35,893.4494 1938,915.6094 C1926.89,932.7694 1909.2,944.7694 1890.55,953.1394 " fill="none" id="*start*RunningTimer-to-Pausieren" style="stroke:#181818;stroke-width:1.0;"/><polygon fill="#181818" points="1885.79,955.1894,1895.638,955.3207,1890.3857,953.2198,1892.4866,947.9675,1885.79,955.1894" style="stroke:#181818;stroke-width:1.0;"/><text fill="#000000" font-family="sans-serif" font-size="13" lengthAdjust="spacing" textLength="100" x="1904" y="853.1045">Timer ist pausiert</text></g><!--MD5=[d826b4057958e29a15714c958344e994]
link TAktuelleZeitAnzeigen to TAktuelleZeitAnzeigen--><g id="link_TAktuelleZeitAnzeigen_TAktuelleZeitAnzeigen"><path d="M1690.13,836.8194 C1709.95,837.4194 1725,841.0094 1725,847.6094 C1725,853.6394 1712.43,857.1594 1695.12,858.1794 " fill="none" id="TAktuelleZeitAnzeigen-to-TAktuelleZeitAnzeigen" style="stroke:#181818;stroke-width:1.0;"/><polygon fill="#181818" points="1690.13,858.3994,1699.3033,861.9842,1695.1248,858.171,1698.9379,853.9925,1690.13,858.3994" style="stroke:#181818;stroke-width:1.0;"/><text fill="#000000" font-family="sans-serif" font-size="13" lengthAdjust="spacing" textLength="113" x="1731" y="853.1045">Zeit - 1/10 Sekunde</text></g><!--MD5=[3fc762c149b46829d6bdc5e2e91bed48]
link TAktuelleZeitAnzeigen to Pausieren--><g id="link_TAktuelleZeitAnzeigen_Pausieren"><path d="M1690.23,857.3194 C1740.1,864.8694 1799.45,877.7594 1815,897.6094 C1824.24,909.4094 1824.51,925.7694 1822.03,940.1594 " fill="none" id="TAktuelleZeitAnzeigen-to-Pausieren" style="stroke:#181818;stroke-width:1.0;"/><polygon fill="#181818" points="1821.01,945.3594,1826.6838,937.3091,1821.9823,940.4548,1818.8366,935.7533,1821.01,945.3594" style="stroke:#181818;stroke-width:1.0;"/><text fill="#000000" font-family="sans-serif" font-size="13" lengthAdjust="spacing" textLength="106" x="1823" y="912.1045">Taster S2 drücken</text></g><!--MD5=[29f7a4e52f8039fa0d73422014771d6f]
link Pausieren to TAktuelleZeitAnzeigen--><g id="link_Pausieren_TAktuelleZeitAnzeigen"><path d="M1756.04,945.5194 C1738.67,936.6294 1719.72,926.2594 1703,915.6094 C1681.8,902.1094 1659.37,884.7394 1642.59,871.0794 " fill="none" id="Pausieren-to-TAktuelleZeitAnzeigen" style="stroke:#181818;stroke-width:1.0;"/><polygon fill="#181818" points="1638.45,867.6894,1642.8774,876.487,1642.3179,870.8579,1647.947,870.2984,1638.45,867.6894" style="stroke:#181818;stroke-width:1.0;"/><text fill="#000000" font-family="sans-serif" font-size="13" lengthAdjust="spacing" textLength="106" x="1704" y="912.1045">Taster S1 drücken</text></g><!--MD5=[10e78ecac9351147c57f5189b3b28998]
link Pausieren to ConfigTimer--><g id="link_Pausieren_ConfigTimer"><path d="M1777.47,1000.8294 C1745.45,1023.7094 1695.41,1054.7794 1646,1066.6094 C1633.78,1069.5394 1429.23,1066.0894 1420,1074.6094 C1417.2525,1077.1444 1415.0531,1080.0772 1413.3094,1083.2743 C1412.4376,1084.8729 1411.6796,1086.5375 1411.024,1088.2515 C1410.8601,1088.68 1410.7026,1089.1116 1410.5514,1089.546 C1410.4757,1089.7632 1410.4016,1089.9811 1410.3291,1090.1997 C1410.2928,1090.309 1410.2569,1090.4185 1410.2214,1090.5281 " fill="none" id="Pausieren-to-ConfigTimer" style="stroke:#181818;stroke-width:1.0;"/><polygon fill="#181818" points="1410.2214,1090.5281,1416.8004,1083.1989,1411.7623,1085.7715,1409.1898,1080.7334,1410.2214,1090.5281" style="stroke:#181818;stroke-width:1.0;"/><text fill="#000000" font-family="sans-serif" font-size="13" lengthAdjust="spacing" textLength="106" x="1695" y="1063.1045">Taster S3 drücken</text></g><!--MD5=[6db5374766cf5cf5b0dface51a5505d9]
link TAktuelleZeitAnzeigen to TimerAbgelaufen--><g id="link_TAktuelleZeitAnzeigen_TimerAbgelaufen"><path d="M1592.62,867.6394 C1579.9,880.4394 1567.88,898.1094 1574,915.6094 C1577.18,924.6994 1582.5,933.4194 1588.39,941.1694 " fill="none" id="TAktuelleZeitAnzeigen-to-TimerAbgelaufen" style="stroke:#181818;stroke-width:1.0;"/><polygon fill="#181818" points="1591.71,945.3794,1589.2581,935.8406,1588.6058,941.4597,1582.9866,940.8074,1591.71,945.3794" style="stroke:#181818;stroke-width:1.0;"/><text fill="#000000" font-family="sans-serif" font-size="13" lengthAdjust="spacing" textLength="87" x="1575" y="912.1045">Zeit abgelaufen</text></g><!--MD5=[5ea47a53ae54c883bd4baef3e14172c1]
link TimerAbgelaufen to ConfigTimer--><g id="link_TimerAbgelaufen_ConfigTimer"><path d="M1587.02,1000.7594 C1569.77,1014.1294 1547.64,1029.7394 1526,1040.6094 C1481.79,1062.8194 1451.41,1036.3894 1420,1074.6094 C1417.6263,1077.4981 1415.7102,1080.6991 1414.1757,1084.0942 C1413.4084,1085.7918 1412.7366,1087.5379 1412.1507,1089.3179 C1412.0774,1089.5404 1412.0055,1089.7634 1411.935,1089.9869 C1411.8997,1090.0987 1411.8647,1090.2106 1411.8301,1090.3226 " fill="none" id="TimerAbgelaufen-to-ConfigTimer" style="stroke:#181818;stroke-width:1.0;"/><polygon fill="#181818" points="1411.8301,1090.3226,1418.31,1082.9056,1413.3069,1085.5456,1410.6669,1080.5426,1411.8301,1090.3226" style="stroke:#181818;stroke-width:1.0;"/><text fill="#000000" font-family="sans-serif" font-size="13" lengthAdjust="spacing" textLength="135" x="1502" y="1063.1045">3 Sekunden abgelaufen</text></g><!--MD5=[4a3b8708fcf27ad1085de40b49d5df03]
link TAktuelleZeitAnzeigen to ConfigTimer--><g id="link_TAktuelleZeitAnzeigen_ConfigTimer"><path d="M1690.18,854.8394 C1780.2,863.1594 1922.04,879.0294 1938,897.6094 C1952.86,914.8994 1985.73,957.9094 1903,1040.6094 C1872.65,1070.9494 1852.46,1060.3394 1810,1066.6094 C1799.28,1068.1894 1428.02,1067.3194 1420,1074.6094 C1417.2337,1077.1244 1415.0202,1080.042 1413.2659,1083.2279 C1412.3888,1084.8209 1411.6266,1086.4809 1410.9675,1088.1912 C1410.8027,1088.6188 1410.6444,1089.0495 1410.4923,1089.4831 C1410.4163,1089.6999 1410.3418,1089.9174 1410.2689,1090.1356 C1410.2325,1090.2447 1410.1964,1090.354 1410.1607,1090.4634 " fill="none" id="TAktuelleZeitAnzeigen-to-ConfigTimer" style="stroke:#181818;stroke-width:1.0;"/><polygon fill="#181818" points="1410.1607,1090.4634,1416.7539,1083.1471,1411.7109,1085.7098,1409.1481,1080.6668,1410.1607,1090.4634" style="stroke:#181818;stroke-width:1.0;"/><text fill="#000000" font-family="sans-serif" font-size="13" lengthAdjust="spacing" textLength="106" x="1958" y="978.6045">Taster S3 drücken</text></g><!--MD5=[e8ae83f704cd5341efffa63e5210209a]
link Stoppuhr to Timer--><g id="link_Stoppuhr_Timer"><path d="M1173.03,393.2894 C1178.82,393.3994 1184.59,393.5094 1190.32,393.6094 C1206.21,393.8894 1318.91,400.3094 1333.32,393.6094 C1335.825,392.4444 1338.1025,390.7294 1340.127,388.7734 C1341.1393,387.7955 1342.0883,386.7573 1342.9709,385.6975 " fill="none" id="Stoppuhr-to-Timer" style="stroke:#181818;stroke-width:1.0;"/><polygon fill="#181818" points="1342.9709,385.6975,1334.1378,390.0535,1339.7712,389.5396,1340.2852,395.173,1342.9709,385.6975" style="stroke:#181818;stroke-width:1.0;"/><text fill="#000000" font-family="sans-serif" font-size="13" lengthAdjust="spacing" textLength="141" x="1191.32" y="390.1045">Taster S3 lange drücken</text></g><!--MD5=[0f8db74f6935ea4a7a18c365e631c93f]
reverse link Stoppuhr to Timer--><g id="link_Stoppuhr_Timer"><path d="M1178.21,372.6094 C1225.955,372.6094 1267.4075,372.6094 1297.735,372.6094 C1312.8988,372.6094 1325.2813,372.6094 1334.2784,372.6094 C1336.5277,372.6094 1338.5654,372.6094 1340.3821,372.6094 C1341.2905,372.6094 1342.1436,372.6094 1342.9402,372.6094 " fill="none" id="Stoppuhr-backto-Timer" style="stroke:#181818;stroke-width:1.0;"/><polygon fill="#181818" points="1173.06,372.6094,1182.06,376.6094,1178.06,372.6094,1182.06,368.6094,1173.06,372.6094" style="stroke:#181818;stroke-width:1.0;"/><text fill="#000000" font-family="sans-serif" font-size="13" lengthAdjust="spacing" textLength="141" x="1191.32" y="366.1045">Taster S3 lange drücken</text></g><!--MD5=[837223e6895f9b8e6a94ace81bd48ed2]
@startuml "M242 - Stoppuhr & Timer - State-Event-Diagramm"
title M242 - Stoppuhr & Timer - State-Event-Diagramm
hide empty description

' LED & Buzzer über Kommentare darstellen
' Stimmt Buzzer pausieren

[*] - -> Stoppuhr

note "LED 4 blinkt immer im 2Hz interval" AS N1

state Stoppuhr {
    ' Eigenschaften
    Stoppuhr : LED 1 leuchtet
    Stoppuhr : LED 3 leuchtet, wenn Stoppuhr läuft
    Stoppuhr : LED 3 blinkt, wenn Zwischenzeit aktiv

    ' Events
    [*] - -> SAktuelleZeitAnzeigen : Stoppuhr läuft
    [*] - -> LeereZeitAnzeigen : Stoppuhr ist nicht gestartet
    [*] - -> ZwischenZeitAnzeigen : Zwischenzeit wird angezeigt
    [*] - -> EndzeitAnzeigen : Stoppuhr ist gestoppt

    ' States
    state LeereZeitAnzeigen as "Leere Zeit anzeigen"
    LeereZeitAnzeigen : 00:00:00 wird angezeigt
    
    state SAktuelleZeitAnzeigen as "Aktuelle Zeit anzeigen"
    SAktuelleZeitAnzeigen : Wenn 9:59:59 erreicht, werden Zehntelsekunden nicht mehr angezeigt

    state ZwischenZeitAnzeigen as "Zwischenzeit anzeigen"
    ZwischenZeitAnzeigen : Zeit beim Stopp wird angezeigt
    ZwischenZeitAnzeigen : Zähler lauft im Hintergrund weiter
    
    state EndzeitAnzeigen as "Endzeit anzeigen"
    EndzeitAnzeigen : Zeit beim Stopp wird angezeigt
    EndzeitAnzeigen : Zähler wird angehalten

    ' Events
    SAktuelleZeitAnzeigen -> SAktuelleZeitAnzeigen : Zeit + 1/10 Sekunde
        
    LeereZeitAnzeigen -> SAktuelleZeitAnzeigen : Taster S1 drücken

    SAktuelleZeitAnzeigen - -> ZwischenZeitAnzeigen : Taster S3 drücken
    ZwischenZeitAnzeigen -> SAktuelleZeitAnzeigen : Taster S3 drücken
    ZwischenZeitAnzeigen - -> EndzeitAnzeigen : Taster S2 drücken

    SAktuelleZeitAnzeigen -> EndzeitAnzeigen : Taster S2 drücken
    EndzeitAnzeigen -> SAktuelleZeitAnzeigen : Taster S1 drücken
    EndzeitAnzeigen -> LeereZeitAnzeigen : Taster S3 drücken
}

state Timer {
    ' Eigenschaften
    Timer : LED 2 leuchtet

    ' Events
    [*] - -> ConfigTimer : Timer läuft nicht
    [*] - -> RunningTimer : Timer läuft

    state ConfigTimer as "Timer konfigurieren" {
        ' States
        state EingerichteteZeitAnzeigen as "Eingerichtete Zeit anzeigen"
        state ZeitErhöhen as "Zeit erhöhen"
        ZeitErhöhen : Um 1 Sekunde erhöht
        state ZeitVerringern as "Zeit verringern"
        ZeitVerringern : Um 1 Sekunde verringert

        ' Events
        [*] - -> EingerichteteZeitAnzeigen
       
        EingerichteteZeitAnzeigen -> ZeitErhöhen : Taster S1 drücken
        ZeitErhöhen -> EingerichteteZeitAnzeigen : Taster S1 loslassen
        
        EingerichteteZeitAnzeigen -left-> ZeitVerringern : Taster S2 drücken
        ZeitVerringern -> EingerichteteZeitAnzeigen : Taster S2 loslassen

        EingerichteteZeitAnzeigen -> RunningTimer : Taster S3 drücken
    }

    state RunningTimer as "Timer läuft" {
        ' States
        state TAktuelleZeitAnzeigen as "Aktuelle Zeit anzeigen"
        state Pausieren as "Pausieren"
        Pausieren : Zeit wird angehalten
        state TimerAbgelaufen as "Timer abgelaufen"
        TimerAbgelaufen : Buzzer ertönt

        ' Events
        [*] - -> TAktuelleZeitAnzeigen : Timer läuft
        [*] - -> Pausieren : Timer ist pausiert

        TAktuelleZeitAnzeigen -> TAktuelleZeitAnzeigen : Zeit - 1/10 Sekunde

        TAktuelleZeitAnzeigen - -> Pausieren : Taster S2 drücken 
        Pausieren -> TAktuelleZeitAnzeigen : Taster S1 drücken
        Pausieren - -> ConfigTimer : Taster S3 drücken

        TAktuelleZeitAnzeigen - -> TimerAbgelaufen : Zeit abgelaufen
        TimerAbgelaufen - - -> ConfigTimer : 3 Sekunden abgelaufen

        TAktuelleZeitAnzeigen -> ConfigTimer : Taster S3 drücken
    }
}

Stoppuhr -right-> Timer : Taster S3 lange drücken
Timer -left-> Stoppuhr : Taster S3 lange drücken

@enduml

@startuml "M242 - Stoppuhr & Timer - State-Event-Diagramm"
title M242 - Stoppuhr & Timer - State-Event-Diagramm
hide empty description


[*] - -> Stoppuhr

note "LED 4 blinkt immer im 2Hz interval" AS N1

state Stoppuhr {
    Stoppuhr : LED 1 leuchtet
    Stoppuhr : LED 3 leuchtet, wenn Stoppuhr läuft
    Stoppuhr : LED 3 blinkt, wenn Zwischenzeit aktiv

    [*] - -> SAktuelleZeitAnzeigen : Stoppuhr läuft
    [*] - -> LeereZeitAnzeigen : Stoppuhr ist nicht gestartet
    [*] - -> ZwischenZeitAnzeigen : Zwischenzeit wird angezeigt
    [*] - -> EndzeitAnzeigen : Stoppuhr ist gestoppt

    state LeereZeitAnzeigen as "Leere Zeit anzeigen"
    LeereZeitAnzeigen : 00:00:00 wird angezeigt
    
    state SAktuelleZeitAnzeigen as "Aktuelle Zeit anzeigen"
    SAktuelleZeitAnzeigen : Wenn 9:59:59 erreicht, werden Zehntelsekunden nicht mehr angezeigt

    state ZwischenZeitAnzeigen as "Zwischenzeit anzeigen"
    ZwischenZeitAnzeigen : Zeit beim Stopp wird angezeigt
    ZwischenZeitAnzeigen : Zähler lauft im Hintergrund weiter
    
    state EndzeitAnzeigen as "Endzeit anzeigen"
    EndzeitAnzeigen : Zeit beim Stopp wird angezeigt
    EndzeitAnzeigen : Zähler wird angehalten

    SAktuelleZeitAnzeigen -> SAktuelleZeitAnzeigen : Zeit + 1/10 Sekunde
        
    LeereZeitAnzeigen -> SAktuelleZeitAnzeigen : Taster S1 drücken

    SAktuelleZeitAnzeigen - -> ZwischenZeitAnzeigen : Taster S3 drücken
    ZwischenZeitAnzeigen -> SAktuelleZeitAnzeigen : Taster S3 drücken
    ZwischenZeitAnzeigen - -> EndzeitAnzeigen : Taster S2 drücken

    SAktuelleZeitAnzeigen -> EndzeitAnzeigen : Taster S2 drücken
    EndzeitAnzeigen -> SAktuelleZeitAnzeigen : Taster S1 drücken
    EndzeitAnzeigen -> LeereZeitAnzeigen : Taster S3 drücken
}

state Timer {
    Timer : LED 2 leuchtet

    [*] - -> ConfigTimer : Timer läuft nicht
    [*] - -> RunningTimer : Timer läuft

    state ConfigTimer as "Timer konfigurieren" {
        state EingerichteteZeitAnzeigen as "Eingerichtete Zeit anzeigen"
        state ZeitErhöhen as "Zeit erhöhen"
        ZeitErhöhen : Um 1 Sekunde erhöht
        state ZeitVerringern as "Zeit verringern"
        ZeitVerringern : Um 1 Sekunde verringert

        [*] - -> EingerichteteZeitAnzeigen
       
        EingerichteteZeitAnzeigen -> ZeitErhöhen : Taster S1 drücken
        ZeitErhöhen -> EingerichteteZeitAnzeigen : Taster S1 loslassen
        
        EingerichteteZeitAnzeigen -left-> ZeitVerringern : Taster S2 drücken
        ZeitVerringern -> EingerichteteZeitAnzeigen : Taster S2 loslassen

        EingerichteteZeitAnzeigen -> RunningTimer : Taster S3 drücken
    }

    state RunningTimer as "Timer läuft" {
        state TAktuelleZeitAnzeigen as "Aktuelle Zeit anzeigen"
        state Pausieren as "Pausieren"
        Pausieren : Zeit wird angehalten
        state TimerAbgelaufen as "Timer abgelaufen"
        TimerAbgelaufen : Buzzer ertönt

        [*] - -> TAktuelleZeitAnzeigen : Timer läuft
        [*] - -> Pausieren : Timer ist pausiert

        TAktuelleZeitAnzeigen -> TAktuelleZeitAnzeigen : Zeit - 1/10 Sekunde

        TAktuelleZeitAnzeigen - -> Pausieren : Taster S2 drücken 
        Pausieren -> TAktuelleZeitAnzeigen : Taster S1 drücken
        Pausieren - -> ConfigTimer : Taster S3 drücken

        TAktuelleZeitAnzeigen - -> TimerAbgelaufen : Zeit abgelaufen
        TimerAbgelaufen - - -> ConfigTimer : 3 Sekunden abgelaufen

        TAktuelleZeitAnzeigen -> ConfigTimer : Taster S3 drücken
    }
}

Stoppuhr -right-> Timer : Taster S3 lange drücken
Timer -left-> Stoppuhr : Taster S3 lange drücken

@enduml

PlantUML version 1.2022.7(Mon Aug 22 19:01:30 CEST 2022)
(GPL source distribution)
Java Runtime: OpenJDK Runtime Environment
JVM: OpenJDK 64-Bit Server VM
Default Encoding: Cp1252
Language: de
Country: CH
--></g></svg>