<?xml version="1.0" encoding="UTF-8" standalone="no"?><svg xmlns="http://www.w3.org/2000/svg" xmlns:xlink="http://www.w3.org/1999/xlink" contentStyleType="text/css" height="365px" preserveAspectRatio="none" style="width:1151px;height:365px;background:#FFFFFF;" version="1.1" viewBox="0 0 1151 365" width="1151px" zoomAndPan="magnify"><defs/><g><rect fill="none" height="27.6094" id="_title" style="stroke:none;stroke-width:1.0;" width="202" x="467.5" y="5"/><text fill="#000000" font-family="sans-serif" font-size="14" font-weight="bold" lengthAdjust="spacing" textLength="192" x="472.5" y="24.5332">M242 - Component Diagram</text><!--MD5=[82f4bd93ce31bbd598d1ceea8ec42d38]
cluster Tasks--><g id="cluster_Tasks"><path d="M8.5,98.7894 L49.5,98.7894 A3.75,3.75 0 0 1 52,101.2894 L59,122.3988 L757.5,122.3988 A2.5,2.5 0 0 1 760,124.8988 L760,356.2894 A2.5,2.5 0 0 1 757.5,358.7894 L8.5,358.7894 A2.5,2.5 0 0 1 6,356.2894 L6,101.2894 A2.5,2.5 0 0 1 8.5,98.7894 " fill="none" style="stroke:#000000;stroke-width:1.5;"/><line style="stroke:#000000;stroke-width:1.5;" x1="6" x2="59" y1="122.3988" y2="122.3988"/><text fill="#000000" font-family="sans-serif" font-size="14" font-weight="bold" lengthAdjust="spacing" textLength="40" x="10" y="115.3226">Tasks</text><text fill="#000000" font-family="sans-serif" font-size="14" font-style="italic" lengthAdjust="spacing" textLength="80" x="347" y="138.932">«Rectangle»</text></g><!--MD5=[52f9de3548341929dcb8fcb92ce93104]
cluster Semaphores--><g id="cluster_Semaphores"><path d="M786.5,107.2894 L875.5,107.2894 A3.75,3.75 0 0 1 878,109.7894 L885,130.8988 L1141.5,130.8988 A2.5,2.5 0 0 1 1144,133.3988 L1144,222.7894 A2.5,2.5 0 0 1 1141.5,225.2894 L786.5,225.2894 A2.5,2.5 0 0 1 784,222.7894 L784,109.7894 A2.5,2.5 0 0 1 786.5,107.2894 " fill="none" style="stroke:#000000;stroke-width:1.5;"/><line style="stroke:#000000;stroke-width:1.5;" x1="784" x2="885" y1="130.8988" y2="130.8988"/><text fill="#000000" font-family="sans-serif" font-size="14" font-weight="bold" lengthAdjust="spacing" textLength="88" x="788" y="123.8226">Semaphores</text><text fill="#000000" font-family="sans-serif" font-size="14" font-style="italic" lengthAdjust="spacing" textLength="80" x="928" y="147.432">«Rectangle»</text></g><!--MD5=[b09c4796200f9873fb6bc2e1e06f905b]
entity StopwatchTask--><g id="elem_StopwatchTask"><rect fill="#F1F1F1" height="65.2188" rx="2.5" ry="2.5" style="stroke:#181818;stroke-width:0.5;" width="137" x="22.5" y="152.7894"/><rect fill="#F1F1F1" height="10" style="stroke:#181818;stroke-width:0.5;" width="15" x="139.5" y="157.7894"/><rect fill="#F1F1F1" height="2" style="stroke:#181818;stroke-width:0.5;" width="4" x="137.5" y="159.7894"/><rect fill="#F1F1F1" height="2" style="stroke:#181818;stroke-width:0.5;" width="4" x="137.5" y="163.7894"/><text fill="#000000" font-family="sans-serif" font-size="14" font-style="italic" lengthAdjust="spacing" textLength="97" x="37.5" y="187.3226">«Priority=High»</text><text fill="#000000" font-family="sans-serif" font-size="14" lengthAdjust="spacing" textLength="96" x="38" y="204.932">StopwatchTask</text></g><!--MD5=[13a45572ee3d014db230fcff97a5973c]
entity TimerTask--><g id="elem_TimerTask"><rect fill="#F1F1F1" height="65.2188" rx="2.5" ry="2.5" style="stroke:#181818;stroke-width:0.5;" width="137" x="194.5" y="152.7894"/><rect fill="#F1F1F1" height="10" style="stroke:#181818;stroke-width:0.5;" width="15" x="311.5" y="157.7894"/><rect fill="#F1F1F1" height="2" style="stroke:#181818;stroke-width:0.5;" width="4" x="309.5" y="159.7894"/><rect fill="#F1F1F1" height="2" style="stroke:#181818;stroke-width:0.5;" width="4" x="309.5" y="163.7894"/><text fill="#000000" font-family="sans-serif" font-size="14" font-style="italic" lengthAdjust="spacing" textLength="97" x="209.5" y="187.3226">«Priority=High»</text><text fill="#000000" font-family="sans-serif" font-size="14" lengthAdjust="spacing" textLength="67" x="224.5" y="204.932">TimerTask</text></g><!--MD5=[22219c2eed890e87c522810ff69f43f5]
entity TasterTask--><g id="elem_TasterTask"><rect fill="#F1F1F1" height="65.2188" rx="2.5" ry="2.5" style="stroke:#181818;stroke-width:0.5;" width="200" x="367" y="152.7894"/><rect fill="#F1F1F1" height="10" style="stroke:#181818;stroke-width:0.5;" width="15" x="547" y="157.7894"/><rect fill="#F1F1F1" height="2" style="stroke:#181818;stroke-width:0.5;" width="4" x="545" y="159.7894"/><rect fill="#F1F1F1" height="2" style="stroke:#181818;stroke-width:0.5;" width="4" x="545" y="163.7894"/><text fill="#000000" font-family="sans-serif" font-size="14" font-style="italic" lengthAdjust="spacing" textLength="160" x="382" y="187.3226">«Priority=AboveNormal7»</text><text fill="#000000" font-family="sans-serif" font-size="14" lengthAdjust="spacing" textLength="72" x="426" y="204.932">TasterTask</text></g><!--MD5=[309931db477d7cdaf5dd69c1298ecfc7]
entity DisplayUpdateTask--><g id="elem_DisplayUpdateTask"><rect fill="#F1F1F1" height="65.2188" rx="2.5" ry="2.5" style="stroke:#181818;stroke-width:0.5;" width="200" x="22" y="277.7894"/><rect fill="#F1F1F1" height="10" style="stroke:#181818;stroke-width:0.5;" width="15" x="202" y="282.7894"/><rect fill="#F1F1F1" height="2" style="stroke:#181818;stroke-width:0.5;" width="4" x="200" y="284.7894"/><rect fill="#F1F1F1" height="2" style="stroke:#181818;stroke-width:0.5;" width="4" x="200" y="288.7894"/><text fill="#000000" font-family="sans-serif" font-size="14" font-style="italic" lengthAdjust="spacing" textLength="160" x="37" y="312.3226">«Priority=AboveNormal5»</text><text fill="#000000" font-family="sans-serif" font-size="14" lengthAdjust="spacing" textLength="122" x="56" y="329.932">DisplayUpdateTask</text></g><!--MD5=[3d36f2ba122cfbcd8ab0f4b7f540c6e1]
entity StateEventTask--><g id="elem_StateEventTask"><rect fill="#F1F1F1" height="65.2188" rx="2.5" ry="2.5" style="stroke:#181818;stroke-width:0.5;" width="153" x="257.5" y="277.7894"/><rect fill="#F1F1F1" height="10" style="stroke:#181818;stroke-width:0.5;" width="15" x="390.5" y="282.7894"/><rect fill="#F1F1F1" height="2" style="stroke:#181818;stroke-width:0.5;" width="4" x="388.5" y="284.7894"/><rect fill="#F1F1F1" height="2" style="stroke:#181818;stroke-width:0.5;" width="4" x="388.5" y="288.7894"/><text fill="#000000" font-family="sans-serif" font-size="14" font-style="italic" lengthAdjust="spacing" textLength="113" x="272.5" y="312.3226">«Priority=Normal»</text><text fill="#000000" font-family="sans-serif" font-size="14" lengthAdjust="spacing" textLength="100" x="279" y="329.932">StateEventTask</text></g><!--MD5=[6ae80702163d2370c81997f624a30514]
entity BuzzerTask--><g id="elem_BuzzerTask"><rect fill="#F1F1F1" height="65.2188" rx="2.5" ry="2.5" style="stroke:#181818;stroke-width:0.5;" width="141" x="602.5" y="152.7894"/><rect fill="#F1F1F1" height="10" style="stroke:#181818;stroke-width:0.5;" width="15" x="723.5" y="157.7894"/><rect fill="#F1F1F1" height="2" style="stroke:#181818;stroke-width:0.5;" width="4" x="721.5" y="159.7894"/><rect fill="#F1F1F1" height="2" style="stroke:#181818;stroke-width:0.5;" width="4" x="721.5" y="163.7894"/><text fill="#000000" font-family="sans-serif" font-size="14" font-style="italic" lengthAdjust="spacing" textLength="101" x="617.5" y="187.3226">«Priority=Low1»</text><text fill="#000000" font-family="sans-serif" font-size="14" lengthAdjust="spacing" textLength="73" x="631.5" y="204.932">BuzzerTask</text></g><!--MD5=[177d48b2876bdf09651834c772f5a89a]
entity BuzzerSemaphore--><g id="elem_BuzzerSemaphore"><rect fill="#F1F1F1" height="47.6094" rx="2.5" ry="2.5" style="stroke:#181818;stroke-width:0.5;" width="155" x="972.5" y="161.2894"/><rect fill="#F1F1F1" height="10" style="stroke:#181818;stroke-width:0.5;" width="15" x="1107.5" y="166.2894"/><rect fill="#F1F1F1" height="2" style="stroke:#181818;stroke-width:0.5;" width="4" x="1105.5" y="168.2894"/><rect fill="#F1F1F1" height="2" style="stroke:#181818;stroke-width:0.5;" width="4" x="1105.5" y="172.2894"/><text fill="#000000" font-family="sans-serif" font-size="14" lengthAdjust="spacing" textLength="115" x="987.5" y="195.8226">BuzzerSemaphore</text></g><!--MD5=[28ecd22d80d4014648db13e2b5680dcc]
entity LedSemaphore--><g id="elem_LedSemaphore"><rect fill="#F1F1F1" height="47.6094" rx="2.5" ry="2.5" style="stroke:#181818;stroke-width:0.5;" width="137" x="800.5" y="161.2894"/><rect fill="#F1F1F1" height="10" style="stroke:#181818;stroke-width:0.5;" width="15" x="917.5" y="166.2894"/><rect fill="#F1F1F1" height="2" style="stroke:#181818;stroke-width:0.5;" width="4" x="915.5" y="168.2894"/><rect fill="#F1F1F1" height="2" style="stroke:#181818;stroke-width:0.5;" width="4" x="915.5" y="172.2894"/><text fill="#000000" font-family="sans-serif" font-size="14" lengthAdjust="spacing" textLength="97" x="815.5" y="195.8226">LedSemaphore</text></g><!--MD5=[338da451193dd5d94f32c75d283e35f5]
entity LedTreiber--><g id="elem_LedTreiber"><rect fill="#F1F1F1" height="47.6094" rx="2.5" ry="2.5" style="stroke:#181818;stroke-width:0.5;" width="110" x="814" y="286.2894"/><rect fill="#F1F1F1" height="10" style="stroke:#181818;stroke-width:0.5;" width="15" x="904" y="291.2894"/><rect fill="#F1F1F1" height="2" style="stroke:#181818;stroke-width:0.5;" width="4" x="902" y="293.2894"/><rect fill="#F1F1F1" height="2" style="stroke:#181818;stroke-width:0.5;" width="4" x="902" y="297.2894"/><text fill="#000000" font-family="sans-serif" font-size="14" lengthAdjust="spacing" textLength="70" x="829" y="320.8226">LedTreiber</text></g><!--MD5=[a50042b40828455a75012839cadea618]
link BuzzerTask to BuzzerSemaphore--><g id="link_BuzzerTask_BuzzerSemaphore"><path d="M696.46,152.5394 C718.48,124.8394 754.2,87.1394 795.67,70.7894 C856.72,46.7194 883.15,44.6094 943.33,70.7894 C983.3,88.1794 1015.06,128.7294 1033.21,156.5994 " fill="none" id="BuzzerTask-to-BuzzerSemaphore" style="stroke:#181818;stroke-width:1.0;"/><polygon fill="#181818" points="1036,160.9494,1034.5129,151.2134,1033.3027,156.7393,1027.7768,155.5291,1036,160.9494" style="stroke:#181818;stroke-width:1.0;"/></g><!--MD5=[1142253fccba70456d97b1a4aa924b98]
reverse link LedSemaphore to LedTreiber--><g id="link_LedSemaphore_LedTreiber"><path d="M869,214.4894 C869,236.2394 869,265.9294 869,286.2594 " fill="none" id="LedSemaphore-backto-LedTreiber" style="stroke:#181818;stroke-width:1.0;"/><polygon fill="#181818" points="869,209.4294,865,218.4294,869,214.4294,873,218.4294,869,209.4294" style="stroke:#181818;stroke-width:1.0;"/></g><!--MD5=[60f567324f12ba69136970e577277e4e]
@startuml "M242 - Component Diagram"
title M242 - Component Diagram
hide empty members

package Tasks <<Rectangle>> {
    component StopwatchTask <<Priority=High>>
    component TimerTask <<Priority=High>>
    component TasterTask <<Priority=AboveNormal7>>
    component DisplayUpdateTask <<Priority=AboveNormal5>>
    component StateEventTask <<Priority=Normal>>
    component BuzzerTask <<Priority=Low1>>
}

package Semaphores <<Rectangle>> {
    component BuzzerSemaphore
    component LedSemaphore
}
BuzzerTask -> BuzzerSemaphore

component LedTreiber
LedTreiber -up-> LedSemaphore

@enduml

PlantUML version 1.2022.7(Mon Aug 22 19:01:30 CEST 2022)
(GPL source distribution)
Java Runtime: OpenJDK Runtime Environment
JVM: OpenJDK 64-Bit Server VM
Default Encoding: Cp1252
Language: de
Country: CH
--></g></svg>